<svg width="27" height="21" viewBox="0 0 27 21" fill="none" xmlns="http://www.w3.org/2000/svg">
<path d="M24.1228 0.0340767C23.9287 0.0958424 23.7579 0.23641 23.6144 0.453651C23.5448 0.560143 23.4077 0.890263 22.4817 3.19899L22.1421 4.04665H11.3062H0.470356L0.341684 4.11268C0.145513 4.21065 0.0337156 4.37039 0.00840311 4.58337C-0.00636252 4.71755 0.0948875 5.21166 0.181372 5.41826C0.244653 5.56947 0.419731 6.1424 1.26559 8.96653C1.46387 9.62891 1.68114 10.3573 1.75075 10.5852C1.85622 10.9387 2.2359 12.2039 2.797 14.0717C2.87083 14.3209 2.99317 14.7319 3.07122 14.9854C3.19567 15.4028 3.20833 15.4646 3.21465 15.6605C3.22309 15.9907 3.31379 16.1504 3.52684 16.21C3.62387 16.2356 5.16793 16.2399 5.36622 16.2143C5.44215 16.2058 5.46536 16.2079 5.45481 16.2271C5.44637 16.2399 5.4295 16.2505 5.41684 16.2505C5.40419 16.2505 5.32614 16.2803 5.24387 16.3187C4.72708 16.5529 4.2609 17.0279 4.03942 17.5454C3.6302 18.4975 3.82848 19.5879 4.54145 20.3014C5.84715 21.607 8.00083 20.9851 8.47333 19.1705C8.54504 18.8957 8.56403 18.4187 8.5134 18.1269C8.43114 17.6477 8.20544 17.1983 7.87004 16.8383C7.64645 16.5998 7.27098 16.3549 6.97145 16.2505L6.86598 16.2143L7.42497 16.1994C7.96919 16.1866 11.0425 16.1547 13.9218 16.1334C14.7044 16.127 15.3879 16.1163 15.4406 16.1121C15.5672 16.1014 15.4933 16.1312 15.314 16.1653C14.9006 16.242 14.3986 16.5253 14.1054 16.8447C13.6561 17.3388 13.4367 17.8947 13.4367 18.5465C13.4367 19.2195 13.6561 19.7817 14.099 20.2503C14.4386 20.6081 14.812 20.8254 15.2718 20.934C16.5501 21.2385 17.8347 20.3845 18.109 19.0533C18.2714 18.2547 18.0225 17.3964 17.4614 16.8277C17.0754 16.4358 16.6619 16.2228 16.1156 16.1355C15.9806 16.1142 16.1557 16.1078 17.3496 16.0929C18.2545 16.0844 18.7692 16.0695 18.8198 16.0546C18.8641 16.0418 18.9126 16.0098 18.9295 15.9864C18.9464 15.9609 19.0097 15.8884 19.0729 15.8245C19.17 15.7223 19.2079 15.652 19.3682 15.2921C19.4674 15.0642 19.6593 14.6318 19.7922 14.3337C20.2985 13.1942 20.6001 12.5169 20.8195 12.0228C20.944 11.7417 21.6801 10.0889 22.4543 8.34889C23.2305 6.60882 23.876 5.14351 23.8908 5.09026C23.9034 5.03702 24.1122 4.55355 24.3527 4.01471C24.5932 3.47586 24.8083 2.99452 24.8294 2.94554L24.8674 2.85395L25.264 3.27779C25.4812 3.50994 25.6985 3.74635 25.7428 3.80173C25.9453 4.04665 26.3503 4.08712 26.5486 3.88053C26.77 3.64838 27.0422 2.74533 26.9915 2.40456C26.9789 2.31511 26.9599 2.29168 26.7827 2.12556C26.6751 2.02546 26.4874 1.81673 26.3672 1.66126C25.6141 0.696449 25.4897 0.560143 25.1838 0.351419C24.724 0.0404663 24.4097 -0.0532455 24.1228 0.0340767ZM20.8701 6.84097C20.6887 7.29037 20.5263 7.6929 20.5094 7.73976L20.4757 7.82069L20.3681 7.80791C20.309 7.80152 16.3814 7.79513 11.6416 7.79513H3.02059L2.9784 7.62901C2.75903 6.79625 2.5734 6.07211 2.5734 6.05081C2.5734 6.03377 4.91692 6.02738 11.8842 6.02738H21.1971L20.8701 6.84097ZM19.672 9.81207C19.6636 9.83337 19.5518 10.1166 19.4231 10.4404L19.1868 11.0325H11.5277H3.86856L3.71458 10.4404C3.6302 10.1166 3.55637 9.83337 3.55215 9.81207C3.54161 9.77799 3.93606 9.77586 11.6121 9.77586C19.2923 9.77586 19.6847 9.77799 19.672 9.81207ZM18.1469 13.6138C18.014 13.946 17.9001 14.2293 17.8938 14.2421C17.8854 14.2634 16.548 14.2698 11.3062 14.2698C7.28997 14.2698 4.72286 14.2613 4.71442 14.2506C4.70387 14.2314 4.38747 13.0451 4.38747 13.0217C4.38747 13.0174 7.53887 13.0132 11.3885 13.0132H18.3895L18.1469 13.6138Z" fill="url(#paint0_linear_19_49)"/>
<defs>
<linearGradient id="paint0_linear_19_49" x1="13.5023" y1="20.9964" x2="13.5023" y2="0.00297737" gradientUnits="userSpaceOnUse">
<stop stop-color="#253A4B"/>
<stop offset="1" stop-color="#507DA0"/>
</linearGradient>
</defs>
</svg>
