<svg width="109" height="56" viewBox="0 0 109 56" fill="none" xmlns="http://www.w3.org/2000/svg">
<path d="M13.656 25.032L13.512 24.96L11.4 24.888L11.256 24.864H10.728C10.6 24.832 10.48 24.816 10.368 24.816C10.336 24.816 10.296 24.816 10.248 24.816C10.2 24.832 10.152 24.84 10.104 24.84L9.624 24.864C9.512 24.88 9.392 24.896 9.264 24.912C9.152 24.928 9.04 24.936 8.928 24.936C8.768 24.936 8.656 24.928 8.592 24.912C8.512 24.912 8.432 24.912 8.352 24.912C8.288 24.928 8.224 24.936 8.16 24.936C8.128 24.936 8.024 24.928 7.848 24.912C7.688 24.896 7.424 24.888 7.056 24.888C6.944 24.888 6.84 24.888 6.744 24.888C6.648 24.888 6.552 24.896 6.456 24.912L6.48 25.008H5.904C5.888 25.008 5.88 25.008 5.88 25.008C5.88 25.024 5.872 25.032 5.856 25.032L5.616 25.008C5.6 25.088 5.56 25.144 5.496 25.176C5.448 25.176 5.384 25.152 5.304 25.104C5.24 25.072 5.176 25.056 5.112 25.056L5.088 25.08C5.072 25.08 5.032 25.064 4.968 25.032H4.824C4.728 24.968 4.624 24.92 4.512 24.888C4.4 24.872 4.312 24.832 4.248 24.768C4.168 24.688 4.088 24.648 4.008 24.648C3.96 24.648 3.92 24.664 3.888 24.696C3.792 24.68 3.744 24.656 3.744 24.624V24.576C3.776 24.576 3.744 24.52 3.648 24.408C3.568 24.28 3.528 24.2 3.528 24.168C3.528 24.12 3.544 24.08 3.576 24.048C3.608 24.016 3.624 23.984 3.624 23.952C3.592 23.92 3.544 23.848 3.48 23.736C3.432 23.624 3.408 23.536 3.408 23.472C3.408 23.392 3.416 23.256 3.432 23.064C3.448 22.872 3.496 22.568 3.576 22.152C3.592 22.12 3.6 22.08 3.6 22.032C3.616 21.984 3.64 21.936 3.672 21.888C3.704 21.696 3.768 21.464 3.864 21.192C3.976 20.904 4.032 20.6 4.032 20.28V19.848C4.032 19.72 4.032 19.592 4.032 19.464C4.032 19.32 4.048 19.16 4.08 18.984C4.112 18.664 4.192 18.264 4.32 17.784C4.448 17.304 4.56 16.848 4.656 16.416V16.368L4.752 15.672L4.92 15.144L4.944 15.12V15.024C4.96 14.928 4.968 14.84 4.968 14.76C4.968 14.664 4.968 14.568 4.968 14.472L4.872 14.016C4.888 13.952 4.92 13.864 4.968 13.752C5.016 13.64 5.056 13.344 5.088 12.864C5.168 12.624 5.248 12.32 5.328 11.952C5.408 11.584 5.512 11.136 5.64 10.608L5.712 10.272C5.728 10.176 5.744 10.072 5.76 9.96C5.792 9.848 5.808 9.728 5.808 9.6L5.856 9.264C5.856 9.184 5.856 9.112 5.856 9.048C5.856 8.984 5.872 8.912 5.904 8.832C5.888 8.816 5.88 8.792 5.88 8.76L5.952 8.352C5.952 8.224 5.976 7.992 6.024 7.656C6.296 5.8 6.536 4.296 6.744 3.144C6.952 1.992 7.08 1.288 7.128 1.032V0.959999C7.128 0.783998 7.176 0.639998 7.272 0.527999C7.368 0.415999 7.488 0.36 7.632 0.36C7.696 0.36 7.752 0.367999 7.8 0.383998C7.848 0.383998 7.904 0.391998 7.968 0.407999H8.04C8.44 0.407999 8.832 0.559999 9.216 0.863999C9.616 1.168 9.944 1.608 10.2 2.184C10.328 2.376 10.424 2.624 10.488 2.928C10.552 3.232 10.584 3.736 10.584 4.44V5.16C10.584 5.368 10.56 5.624 10.512 5.928C10.48 6.232 10.448 6.496 10.416 6.72C10.4 6.784 10.368 6.888 10.32 7.032C10.272 7.16 10.216 7.296 10.152 7.44C10.104 7.584 10.056 7.72 10.008 7.848C9.96 7.976 9.936 8.056 9.936 8.088V8.112C9.952 8.128 9.96 8.152 9.96 8.184C9.96 8.2 9.952 8.216 9.936 8.232H9.96L9.984 8.304C10 8.352 10.016 8.4 10.032 8.448C10.048 8.48 10.056 8.512 10.056 8.544V8.592C10.072 8.672 10.072 8.76 10.056 8.856C10.056 8.952 10.064 9.04 10.08 9.12C10.064 9.312 10.024 9.464 9.96 9.576C9.896 9.688 9.816 9.808 9.72 9.936C9.64 10.048 9.552 10.192 9.456 10.368C9.36 10.544 9.272 10.784 9.192 11.088C9.16 11.184 9.144 11.24 9.144 11.256C9.144 11.32 9.16 11.384 9.192 11.448C9.224 11.512 9.24 11.584 9.24 11.664C9.24 11.792 9.208 11.904 9.144 12C9.096 12.08 9.072 12.136 9.072 12.168L9.12 12.216C9.088 12.392 9.04 12.552 8.976 12.696C8.928 12.84 8.888 12.984 8.856 13.128L8.712 13.728C8.632 13.984 8.568 14.232 8.52 14.472C8.472 14.712 8.376 15.016 8.232 15.384L8.184 15.504C8.2 15.552 8.208 15.64 8.208 15.768C8.208 15.992 8.168 16.2 8.088 16.392C8.024 16.568 7.936 16.76 7.824 16.968C7.728 17.16 7.624 17.368 7.512 17.592C7.4 17.816 7.312 18.08 7.248 18.384C7.248 18.432 7.248 18.48 7.248 18.528C7.264 18.56 7.272 18.592 7.272 18.624C7.272 18.72 7.24 18.856 7.176 19.032C7.128 19.192 7.104 19.336 7.104 19.464C7.104 19.56 7.104 19.656 7.104 19.752C7.12 19.832 7.128 19.912 7.128 19.992C7.128 20.104 7.12 20.176 7.104 20.208L7.008 20.52C7.008 20.792 7.008 21.072 7.008 21.36C7.008 21.632 7.016 21.92 7.032 22.224L6.888 22.8C6.984 22.768 7.048 22.736 7.08 22.704V22.8C7.64 22.832 8.04 22.864 8.28 22.896C8.536 22.928 8.712 22.952 8.808 22.968C8.92 22.968 9.016 22.96 9.096 22.944C9.192 22.912 9.288 22.88 9.384 22.848C9.48 22.8 9.592 22.768 9.72 22.752C9.864 22.72 10.032 22.704 10.224 22.704C10.304 22.704 10.384 22.712 10.464 22.728C10.56 22.728 10.648 22.728 10.728 22.728C10.824 22.728 11.056 22.72 11.424 22.704C11.808 22.672 12.2 22.632 12.6 22.584L12.744 22.152C12.712 22.088 12.696 22.032 12.696 21.984C12.696 21.888 12.76 21.784 12.888 21.672C13.032 21.144 13.192 20.52 13.368 19.8C13.56 19.064 13.776 18.2 14.016 17.208C14.048 17.032 14.104 16.768 14.184 16.416C14.28 16.048 14.384 15.624 14.496 15.144C14.608 14.664 14.712 14.136 14.808 13.56C14.904 12.984 14.976 12.392 15.024 11.784C15.072 11.416 15.12 11.064 15.168 10.728C15.232 10.392 15.28 10.112 15.312 9.888C15.36 9.68 15.408 9.392 15.456 9.024C15.504 8.656 15.56 8.288 15.624 7.92C15.624 7.728 15.64 7.496 15.672 7.224C15.704 6.952 15.744 6.664 15.792 6.36C15.84 6.04 15.888 5.72 15.936 5.4C16 5.064 16.056 4.752 16.104 4.464C16.2 3.904 16.272 3.448 16.32 3.096C16.384 2.744 16.432 2.456 16.464 2.232C16.512 1.992 16.544 1.8 16.56 1.656C16.592 1.496 16.624 1.336 16.656 1.176L16.776 0.839999V0.791998C16.776 0.471998 16.904 0.263998 17.16 0.167999C17.416 0.0559998 17.68 0 17.952 0C18.256 0 18.56 0.127999 18.864 0.383998C19.168 0.623999 19.416 0.991999 19.608 1.488C19.672 1.584 19.728 1.68 19.776 1.776C19.824 1.872 19.856 1.992 19.872 2.136C19.888 2.28 19.896 2.472 19.896 2.712C19.912 2.936 19.92 3.24 19.92 3.624C19.92 3.768 19.912 3.92 19.896 4.08C19.896 4.224 19.888 4.36 19.872 4.488V4.536C19.872 4.648 19.824 4.824 19.728 5.064C19.648 5.304 19.552 5.568 19.44 5.856C19.344 6.128 19.24 6.392 19.128 6.648C19.032 6.904 18.976 7.112 18.96 7.272C18.944 7.352 18.936 7.424 18.936 7.488C18.936 7.536 18.936 7.576 18.936 7.608C18.936 7.688 18.936 7.752 18.936 7.8C18.952 7.832 18.968 7.864 18.984 7.896C19 7.896 19.032 7.824 19.08 7.68L19.128 7.44L19.176 7.536C19.192 7.616 19.208 7.68 19.224 7.728C19.256 7.776 19.272 7.832 19.272 7.896V7.92C19.288 8 19.296 8.088 19.296 8.184C19.296 8.264 19.304 8.328 19.32 8.376C19.304 8.728 19.264 9.12 19.2 9.552C19.136 9.968 19.024 10.488 18.864 11.112V11.16C18.88 11.16 18.904 11.168 18.936 11.184C18.984 11.232 19.008 11.28 19.008 11.328C19.008 11.456 18.968 11.584 18.888 11.712C18.808 11.84 18.768 11.92 18.768 11.952C18.768 11.968 18.784 11.992 18.816 12.024C18.768 12.232 18.736 12.36 18.72 12.408C18.72 12.44 18.72 12.456 18.72 12.456C18.72 12.456 18.712 12.472 18.696 12.504C18.696 12.52 18.672 12.616 18.624 12.792C18.576 12.968 18.504 13.248 18.408 13.632C18.312 14.016 18.184 14.576 18.024 15.312V15.408C18.024 15.984 17.96 16.608 17.832 17.28C17.72 17.936 17.56 18.768 17.352 19.776C17.32 19.984 17.288 20.16 17.256 20.304C17.24 20.432 17.232 20.56 17.232 20.688C17.232 20.912 17.248 21.096 17.28 21.24C17.328 21.368 17.352 21.504 17.352 21.648C17.352 21.792 17.304 21.992 17.208 22.248C17.128 22.488 17.048 22.696 16.968 22.872C17.144 22.904 17.28 22.928 17.376 22.944C17.488 22.96 17.568 22.968 17.616 22.968C17.728 22.968 17.824 22.96 17.904 22.944C18 22.912 18.096 22.88 18.192 22.848C18.304 22.8 18.424 22.768 18.552 22.752C18.68 22.72 18.848 22.704 19.056 22.704C19.136 22.704 19.216 22.712 19.296 22.728C19.392 22.728 19.48 22.728 19.56 22.728C19.624 22.728 19.736 22.728 19.896 22.728C20.072 22.712 20.264 22.696 20.472 22.68C20.696 22.648 20.928 22.624 21.168 22.608C21.424 22.592 21.656 22.568 21.864 22.536C21.96 22.536 22.056 22.544 22.152 22.56C22.248 22.56 22.336 22.56 22.416 22.56L22.536 22.32L23.256 22.248L23.352 22.152C23.416 21.72 23.48 21.248 23.544 20.736C23.624 20.208 23.712 19.656 23.808 19.08L24.552 12.024C24.568 11.912 24.592 11.76 24.624 11.568C24.656 11.36 24.688 11.144 24.72 10.92C24.768 10.696 24.808 10.472 24.84 10.248C24.888 10.024 24.936 9.84 24.984 9.696C25.176 8.864 25.384 8.048 25.608 7.248C25.832 6.448 26.04 5.72 26.232 5.064C26.44 4.408 26.624 3.84 26.784 3.36C26.96 2.864 27.08 2.512 27.144 2.304C27.208 1.984 27.384 1.736 27.672 1.56C27.976 1.384 28.288 1.296 28.608 1.296C29.024 1.296 29.32 1.312 29.496 1.344C29.688 1.36 29.784 1.504 29.784 1.776V1.872C29.848 1.952 29.88 2.096 29.88 2.304C29.88 2.592 29.824 2.992 29.712 3.504C29.68 3.664 29.64 3.832 29.592 4.008C29.56 4.184 29.52 4.376 29.472 4.584C29.392 4.76 29.304 4.984 29.208 5.256C29.128 5.512 29.04 5.824 28.944 6.192C28.96 6.224 28.968 6.272 28.968 6.336C28.968 6.384 28.952 6.472 28.92 6.6C28.888 6.712 28.848 6.832 28.8 6.96C28.752 7.072 28.712 7.192 28.68 7.32C28.648 7.432 28.632 7.512 28.632 7.56C28.632 7.592 28.64 7.608 28.656 7.608L28.56 8.64C28.56 8.672 28.536 8.752 28.488 8.88C28.456 8.992 28.424 9.128 28.392 9.288L28.344 9.6C28.328 9.68 28.312 9.752 28.296 9.816C28.296 9.864 28.296 9.912 28.296 9.96C28.296 10.024 28.296 10.08 28.296 10.128C28.312 10.16 28.32 10.216 28.32 10.296C28.32 10.456 28.312 10.656 28.296 10.896C28.28 11.12 28.256 11.392 28.224 11.712L27.768 15.48C27.608 16.28 27.44 17.024 27.264 17.712C27.104 18.384 27.024 18.88 27.024 19.2C27.024 19.28 27.048 19.352 27.096 19.416C27.112 19.528 27.12 19.648 27.12 19.776C27.136 19.904 27.144 20.032 27.144 20.16C27.144 20.496 27.128 20.856 27.096 21.24C27.064 21.624 27.032 21.976 27 22.296C27.016 22.344 27.024 22.432 27.024 22.56C27.024 22.752 26.984 22.952 26.904 23.16C26.888 23.512 26.792 23.752 26.616 23.88C26.44 23.992 26.088 24.048 25.56 24.048C25.528 24.048 25.352 24.08 25.032 24.144C24.728 24.208 24.344 24.28 23.88 24.36C23.416 24.424 22.896 24.488 22.32 24.552C21.76 24.6 21.208 24.624 20.664 24.624C20.584 24.624 20.512 24.624 20.448 24.624C20.384 24.624 20.32 24.616 20.256 24.6L20.208 24.648L20.088 24.624H19.56C19.432 24.592 19.312 24.576 19.2 24.576C19.152 24.576 19.104 24.584 19.056 24.6C19.024 24.6 18.984 24.6 18.936 24.6L18.456 24.624C18.328 24.64 18.208 24.656 18.096 24.672C17.984 24.688 17.864 24.696 17.736 24.696C17.688 24.696 17.632 24.696 17.568 24.696C17.52 24.696 17.472 24.688 17.424 24.672C17.344 24.672 17.264 24.672 17.184 24.672C17.12 24.688 17.048 24.696 16.968 24.696H16.848C16.768 24.696 16.56 24.72 16.224 24.768C15.888 24.816 15.576 24.864 15.288 24.912V25.008H14.712L14.688 25.032H13.656ZM26.76 23.424C26.76 23.44 26.752 23.456 26.736 23.472C26.736 23.472 26.736 23.48 26.736 23.496C26.736 23.512 26.744 23.52 26.76 23.52V23.424Z" fill="url(#paint0_linear_20_678)"/>
<path d="M30.1217 18.96C30.1217 18.928 30.1297 18.896 30.1457 18.864L30.4337 17.928V17.904L30.7217 16.032L30.8897 15.312C30.9217 15.232 30.9537 15.144 30.9857 15.048C31.0337 14.952 31.0737 14.848 31.1057 14.736C31.1377 14.592 31.1777 14.432 31.2257 14.256C31.2897 14.08 31.3697 13.92 31.4657 13.776C31.5617 13.616 31.6897 13.488 31.8497 13.392C32.0097 13.296 32.2097 13.248 32.4497 13.248C32.5937 13.248 32.7777 13.272 33.0017 13.32C33.2417 13.352 33.4017 13.408 33.4817 13.488C33.5777 13.616 33.6737 13.728 33.7697 13.824C33.8657 13.904 33.9297 14.048 33.9617 14.256C34.0257 14.32 34.0817 14.384 34.1297 14.448C34.1937 14.512 34.2257 14.576 34.2257 14.64L34.0817 15.36C34.0817 15.408 34.0737 15.464 34.0577 15.528C34.0417 15.592 34.0097 15.696 33.9617 15.84C33.9297 15.968 33.8737 16.16 33.7937 16.416C33.7137 16.672 33.6017 17.016 33.4577 17.448C33.4257 17.512 33.4097 17.576 33.4097 17.64C33.4097 17.688 33.4017 17.728 33.3857 17.76C33.3857 17.856 33.3777 17.928 33.3617 17.976C33.3297 18.072 33.2817 18.168 33.2177 18.264C33.1697 18.36 33.1217 18.456 33.0737 18.552C33.0257 18.648 32.9777 18.752 32.9297 18.864C32.8817 18.976 32.8257 19.12 32.7617 19.296L32.3297 20.112L33.3377 19.584C33.5777 19.44 33.7777 19.304 33.9377 19.176C34.1137 19.032 34.2897 18.8 34.4657 18.48L34.9937 17.952C35.0577 17.904 35.1057 17.856 35.1377 17.808C35.1697 17.76 35.2017 17.712 35.2337 17.664C35.2817 17.584 35.3297 17.512 35.3777 17.448C35.4417 17.368 35.5057 17.296 35.5697 17.232C35.6977 17.104 35.8017 16.968 35.8817 16.824C35.9617 16.664 36.0337 16.512 36.0977 16.368L36.2177 16.152V16.128L36.2417 16.104V16.08C36.2097 16.032 36.1777 16.008 36.1457 16.008L35.8337 16.104C35.5457 16.184 35.3137 16.224 35.1377 16.224C34.9937 16.224 34.9057 16.184 34.8737 16.104C34.8417 16.04 34.8257 15.992 34.8257 15.96C34.8257 15.928 34.8177 15.896 34.8017 15.864C34.8017 15.816 34.8177 15.776 34.8497 15.744C34.8657 15.68 34.9617 15.608 35.1377 15.528L35.7377 15.312L35.7617 15.288H35.8097C36.0017 15.208 36.1937 15.152 36.3857 15.12C36.5777 15.072 36.7697 15.048 36.9617 15.048C37.1377 15.048 37.3377 15.088 37.5617 15.168C37.7857 15.232 37.9937 15.328 38.1857 15.456C38.3777 15.584 38.5377 15.744 38.6657 15.936C38.8097 16.112 38.8897 16.312 38.9057 16.536C38.9217 16.616 38.9217 16.696 38.9057 16.776C38.8897 16.84 38.8657 16.912 38.8337 16.992C38.7537 17.296 38.6017 17.592 38.3777 17.88C38.1697 18.152 37.9377 18.416 37.6817 18.672L37.6097 18.768C37.5777 18.832 37.5457 18.872 37.5137 18.888C37.3537 19.064 37.1777 19.208 36.9857 19.32C36.8097 19.432 36.6177 19.536 36.4097 19.632V19.608L36.0257 19.824C35.8497 19.904 35.6737 19.952 35.4977 19.968C35.3217 19.984 35.1457 19.992 34.9697 19.992H34.9217L35.1617 20.088C35.8177 20.344 36.1937 20.912 36.2897 21.792C36.2897 21.936 36.2897 22.088 36.2897 22.248C36.2897 22.408 36.2817 22.552 36.2657 22.68V22.92C36.2337 23 36.2017 23.064 36.1697 23.112C36.1377 23.16 36.1057 23.216 36.0737 23.28L35.9537 23.448L36.0017 23.664C36.0177 23.744 36.0337 23.824 36.0497 23.904C36.0657 23.984 36.0977 24.024 36.1457 24.024C36.3057 24.024 36.4817 23.944 36.6737 23.784C36.8817 23.624 37.0257 23.504 37.1057 23.424H37.0817L37.4657 23.088C37.5457 23.008 37.6257 22.936 37.7057 22.872C37.7857 22.808 37.8577 22.736 37.9217 22.656C38.2577 22.352 38.5457 22.032 38.7857 21.696C39.0417 21.344 39.2817 20.984 39.5057 20.616L39.6737 20.304L40.0817 19.656L40.2257 19.32V19.272C40.2257 19.272 40.2337 19.264 40.2497 19.248C40.2497 19.184 40.2737 19.112 40.3217 19.032C40.4017 18.808 40.4817 18.592 40.5617 18.384C40.6577 18.176 40.7697 18.048 40.8977 18C40.9137 18.032 40.9297 18.048 40.9457 18.048L41.0177 18.096C41.0817 18.16 41.1137 18.24 41.1137 18.336C41.1297 18.416 41.1217 18.52 41.0897 18.648C41.0737 18.712 41.0577 18.768 41.0417 18.816C41.0417 18.864 41.0417 18.92 41.0417 18.984C41.0737 19.176 41.0257 19.408 40.8977 19.68L40.7297 19.992C40.3457 20.648 39.9617 21.248 39.5777 21.792C39.2097 22.32 38.7457 22.808 38.1857 23.256C38.0737 23.336 37.9777 23.432 37.8977 23.544C37.8177 23.64 37.7297 23.736 37.6337 23.832C37.5377 23.96 37.4337 24.08 37.3217 24.192C37.2257 24.288 37.1377 24.368 37.0577 24.432C36.9137 24.512 36.7377 24.6 36.5297 24.696C36.3217 24.792 36.1217 24.88 35.9297 24.96C35.7377 25.04 35.5697 25.104 35.4257 25.152C35.2817 25.216 35.2097 25.248 35.2097 25.248C35.0657 25.216 34.9617 25.176 34.8977 25.128C34.8497 25.08 34.7857 25.016 34.7057 24.936L34.5377 24.744L33.8657 23.952L33.7937 23.784L33.7217 23.688V23.64C33.6897 23.592 33.6657 23.552 33.6497 23.52C33.6337 23.472 33.6177 23.424 33.6017 23.376V23.28C33.6017 23.264 33.5937 23.248 33.5777 23.232C33.5777 23.216 33.5857 23.192 33.6017 23.16C33.6017 23.064 33.6097 23 33.6257 22.968L33.6737 22.704V22.68H33.6977C33.7137 22.6 33.7297 22.52 33.7457 22.44C33.7617 22.344 33.7697 22.256 33.7697 22.176V22.104C33.7537 22.072 33.7137 22.016 33.6497 21.936C33.5857 21.84 33.5137 21.744 33.4337 21.648C33.3537 21.552 33.2657 21.472 33.1697 21.408C33.0737 21.328 32.9777 21.272 32.8817 21.24C32.7537 21.24 32.6417 21.216 32.5457 21.168C32.4817 21.152 32.4177 21.136 32.3537 21.12C32.3057 21.104 32.2657 21.096 32.2337 21.096C32.1697 21.096 32.1297 21.144 32.1137 21.24C32.0977 21.336 32.0737 21.448 32.0417 21.576C32.0257 21.704 32.0017 21.824 31.9697 21.936C31.9537 22.048 31.9057 22.144 31.8257 22.224C31.7297 22.32 31.6577 22.416 31.6097 22.512L31.4897 22.68C31.4577 22.728 31.4257 22.792 31.3937 22.872C31.3777 22.936 31.3617 23 31.3457 23.064C31.3137 23.144 31.2817 23.232 31.2497 23.328C31.2337 23.408 31.2017 23.464 31.1537 23.496C31.1217 23.56 31.0737 23.624 31.0097 23.688C30.9617 23.736 30.9057 23.776 30.8417 23.808C30.7617 23.888 30.6817 23.968 30.6017 24.048C30.5377 24.112 30.5457 24.192 30.6257 24.288C30.6097 24.336 30.5457 24.464 30.4337 24.672C30.3377 24.864 30.2257 24.96 30.0977 24.96C29.9537 24.96 29.8417 24.96 29.7617 24.96C29.6977 24.976 29.6417 24.984 29.5937 24.984H29.2577C29.0497 24.984 28.9377 24.896 28.9217 24.72V24.624C28.8897 24.56 28.8897 24.488 28.9217 24.408V24.192C28.9217 24.144 28.9297 24.104 28.9457 24.072V24.024C28.9617 23.896 28.9777 23.776 28.9937 23.664C29.0097 23.552 29.0337 23.44 29.0657 23.328C29.1137 23.056 29.1697 22.792 29.2337 22.536C29.2977 22.264 29.3697 22.008 29.4497 21.768C29.4817 21.592 29.5217 21.432 29.5697 21.288C29.6177 21.128 29.6577 20.976 29.6897 20.832L29.7137 20.64L29.7377 20.544V20.52L29.8097 20.16C29.8417 20 29.8737 19.848 29.9057 19.704C29.9537 19.544 30.0017 19.384 30.0497 19.224L30.1217 18.96Z" fill="url(#paint1_linear_20_678)"/>
<path d="M46.6764 23.304C46.5964 23.304 46.5164 23.304 46.4364 23.304C46.3724 23.288 46.3004 23.264 46.2204 23.232L46.1724 23.304L45.9804 23.568C45.9484 23.616 45.8844 23.664 45.7884 23.712C45.7084 23.76 45.6524 23.848 45.6204 23.976C45.6044 23.992 45.5964 24.008 45.5964 24.024V24.048C45.5324 24.176 45.4124 24.32 45.2364 24.48C45.0604 24.64 44.8924 24.76 44.7324 24.84C44.6844 24.872 44.6364 24.904 44.5884 24.936C44.5404 24.968 44.5004 25 44.4684 25.032C44.3564 25.112 44.2524 25.176 44.1564 25.224C44.0604 25.288 43.9324 25.336 43.7724 25.368C43.5644 25.448 43.3644 25.496 43.1724 25.512C42.9964 25.528 42.7964 25.528 42.5724 25.512L42.3324 25.416L42.0204 25.248L41.9004 25.2C41.8684 25.2 41.8364 25.192 41.8044 25.176C41.7884 25.176 41.7724 25.176 41.7564 25.176C41.6764 25.176 41.5724 25.16 41.4444 25.128C40.9644 24.904 40.5404 24.584 40.1724 24.168C39.7724 23.688 39.5484 23.112 39.5004 22.44C39.5004 22.312 39.5084 22.144 39.5244 21.936C39.5244 21.712 39.5244 21.488 39.5244 21.264C39.5404 21.04 39.5564 20.824 39.5724 20.616C39.6044 20.408 39.6284 20.24 39.6444 20.112C39.6764 19.696 39.7564 19.312 39.8844 18.96C39.9804 18.704 40.1004 18.456 40.2444 18.216C40.4044 17.976 40.5644 17.744 40.7244 17.52C40.9484 17.168 41.1884 16.864 41.4444 16.608V16.632C41.6204 16.424 41.8124 16.24 42.0204 16.08C42.2284 15.92 42.4444 15.776 42.6684 15.648L42.8124 15.576C43.0204 15.432 43.2204 15.328 43.4124 15.264C43.6204 15.184 43.8284 15.128 44.0364 15.096C44.2604 15.064 44.4444 15.064 44.5884 15.096C44.7484 15.112 44.9164 15.152 45.0924 15.216L45.1644 15.264C45.4044 15.392 45.6364 15.52 45.8604 15.648C46.0844 15.76 46.2844 15.896 46.4604 16.056C46.6524 16.2 46.7964 16.368 46.8924 16.56C47.0044 16.752 47.0604 16.968 47.0604 17.208C47.0924 17.288 47.0524 17.368 46.9404 17.448C46.8444 17.512 46.6524 17.528 46.3644 17.496C46.1724 17.512 45.9404 17.568 45.6684 17.664C45.4124 17.76 45.1484 17.88 44.8764 18.024C44.6044 18.168 44.3404 18.336 44.0844 18.528C43.8444 18.704 43.6444 18.88 43.4844 19.056C43.3084 19.296 43.1404 19.56 42.9804 19.848C42.8204 20.12 42.6844 20.408 42.5724 20.712C42.5404 20.792 42.5084 20.952 42.4764 21.192C42.4444 21.432 42.4124 21.664 42.3804 21.888L42.3084 22.32V22.416C42.2604 22.624 42.2204 22.824 42.1884 23.016C42.1564 23.208 42.1404 23.376 42.1404 23.52C42.1404 23.68 42.1884 23.872 42.2844 24.096C42.3804 24.304 42.4844 24.424 42.5964 24.456C42.7884 24.552 43.0044 24.6 43.2444 24.6C43.3724 24.6 43.5084 24.584 43.6524 24.552C43.7964 24.52 43.9404 24.48 44.0844 24.432C44.1644 24.4 44.2284 24.36 44.2764 24.312C44.3244 24.248 44.3804 24.176 44.4444 24.096C44.4924 24.032 44.5324 23.968 44.5644 23.904C44.6124 23.84 44.6684 23.792 44.7324 23.76C44.9564 23.584 45.1404 23.384 45.2844 23.16C45.4284 22.92 45.5164 22.728 45.5484 22.584C45.3244 22.44 45.1004 22.168 44.8764 21.768C44.6684 21.352 44.5324 20.928 44.4684 20.496C44.5164 20.064 44.5804 19.736 44.6604 19.512C44.7404 19.288 44.8204 19.128 44.9004 19.032C44.9964 18.92 45.0924 18.856 45.1884 18.84C45.3004 18.824 45.4124 18.816 45.5244 18.816C45.7004 18.816 45.9004 18.864 46.1244 18.96C46.3484 19.04 46.4844 19.2 46.5324 19.44H46.6284C46.6764 19.488 46.7004 19.584 46.7004 19.728C46.7324 19.808 46.7484 19.88 46.7484 19.944C46.7644 20.008 46.7644 20.104 46.7484 20.232C46.7484 20.232 46.7644 20.248 46.7964 20.28L46.8684 20.376C46.9484 20.472 46.9804 20.56 46.9644 20.64C46.9484 20.704 46.9244 20.784 46.8924 20.88L46.8444 21.072L46.8684 21.24L46.9164 21.6C46.9164 21.648 46.8604 21.776 46.7484 21.984C46.6524 22.176 46.5644 22.352 46.4844 22.512H46.6044C46.6684 22.528 46.7404 22.536 46.8204 22.536C46.9964 22.568 47.1804 22.52 47.3724 22.392C47.5804 22.248 47.7724 22.064 47.9484 21.84C48.1244 21.648 48.3084 21.448 48.5004 21.24C48.6924 21.016 48.8924 20.768 49.1004 20.496C49.1324 20.432 49.1484 20.408 49.1484 20.424C49.2284 20.328 49.2924 20.224 49.3404 20.112C49.4044 20 49.4764 19.888 49.5564 19.776C49.7804 19.392 50.0124 19.008 50.2524 18.624C50.3164 18.576 50.3884 18.552 50.4684 18.552C50.5484 18.536 50.6204 18.552 50.6844 18.6C50.7484 18.632 50.7804 18.696 50.7804 18.792C50.7964 18.872 50.7564 18.984 50.6604 19.128L50.6844 19.104C50.5404 19.536 50.3004 20 49.9644 20.496C49.6444 20.992 49.2924 21.456 48.9084 21.888C48.5244 22.304 48.1324 22.656 47.7324 22.944C47.3324 23.216 46.9804 23.336 46.6764 23.304ZM45.8844 21.96L45.9804 21.744L46.1004 21.384C46.1164 21.32 46.1404 21.272 46.1724 21.24C46.2044 21.192 46.2204 21.144 46.2204 21.096C46.2204 21.08 46.2204 21.072 46.2204 21.072C46.2364 21.056 46.2444 21.04 46.2444 21.024L46.1244 20.496C46.0924 20.288 45.9964 20.104 45.8364 19.944C45.8044 19.928 45.7644 19.912 45.7164 19.896C45.6844 19.864 45.6444 19.848 45.5964 19.848C45.5964 19.832 45.5724 19.848 45.5244 19.896C45.5244 19.896 45.5084 19.96 45.4764 20.088C45.4924 20.12 45.4924 20.168 45.4764 20.232C45.4604 20.28 45.4444 20.328 45.4284 20.376C45.4124 20.456 45.3964 20.568 45.3804 20.712C45.3804 20.856 45.4444 21.104 45.5724 21.456V21.624L45.8844 21.96Z" fill="url(#paint2_linear_20_678)"/>
<path d="M56.5727 20.064L56.4287 20.256V20.232L56.2127 20.616C56.1327 20.696 56.0607 20.776 55.9967 20.856C55.9487 20.92 55.9007 20.992 55.8527 21.072L55.5647 21.48L55.3247 21.768C55.1487 21.976 54.9967 22.176 54.8687 22.368C54.7567 22.544 54.6367 22.744 54.5087 22.968C53.9807 23.56 53.4767 23.968 52.9967 24.192C52.5327 24.416 52.0847 24.528 51.6527 24.528C51.1407 24.48 50.7407 24.392 50.4527 24.264C50.1807 24.136 49.9727 23.952 49.8287 23.712C49.6847 23.472 49.5887 23.168 49.5407 22.8C49.4927 22.432 49.4447 21.984 49.3967 21.456C49.3807 21.312 49.4127 21.104 49.4927 20.832C49.5727 20.56 49.6687 20.272 49.7807 19.968C49.8927 19.648 50.0127 19.344 50.1407 19.056C50.2687 18.752 50.3727 18.504 50.4527 18.312C50.5327 18.136 50.5967 18.008 50.6447 17.928C50.7087 17.848 50.8367 17.856 51.0287 17.952C51.2687 18.08 51.4367 18.168 51.5327 18.216C51.6447 18.264 51.7007 18.328 51.7007 18.408C51.7167 18.488 51.7007 18.624 51.6527 18.816C51.6047 18.992 51.5567 19.272 51.5087 19.656C51.4767 19.848 51.4447 20.008 51.4127 20.136C51.3647 20.264 51.3407 20.376 51.3407 20.472C51.3247 20.552 51.3007 20.624 51.2687 20.688C51.2527 20.752 51.2527 20.816 51.2687 20.88C51.3007 20.992 51.3167 21.104 51.3167 21.216C51.3327 21.312 51.2927 21.456 51.1967 21.648L51.2447 22.08C51.2607 22.464 51.3007 22.808 51.3647 23.112C51.4447 23.4 51.6447 23.544 51.9647 23.544C52.0607 23.544 52.1567 23.504 52.2527 23.424C52.3167 23.456 52.3807 23.472 52.4447 23.472C52.6367 23.472 52.8527 23.376 53.0927 23.184C53.3487 22.976 53.6127 22.72 53.8847 22.416C54.1567 22.096 54.4367 21.752 54.7247 21.384C55.0127 21 55.2767 20.632 55.5167 20.28L55.7807 19.92C55.8927 19.776 55.9967 19.616 56.0927 19.44C56.2047 19.264 56.3087 19.088 56.4047 18.912C56.5327 18.656 56.6687 18.408 56.8127 18.168C56.9567 17.912 57.0927 17.72 57.2207 17.592C57.5087 17.192 57.8207 16.808 58.1567 16.44C58.4927 16.056 58.8127 15.72 59.1167 15.432C59.4367 15.128 59.7247 14.888 59.9807 14.712C60.2367 14.536 60.4287 14.448 60.5567 14.448C60.7167 14.448 60.8927 14.464 61.0847 14.496C61.2767 14.512 61.4527 14.552 61.6127 14.616C61.7887 14.68 61.9327 14.776 62.0447 14.904C62.1567 15.016 62.2207 15.168 62.2367 15.36C62.2687 15.536 62.2607 15.72 62.2127 15.912C62.2767 15.976 62.3327 16.048 62.3807 16.128C62.4287 16.208 62.4927 16.312 62.5727 16.44C62.5407 16.584 62.4607 16.8 62.3327 17.088C62.2207 17.36 62.1007 17.656 61.9727 17.976C61.8127 18.328 61.6607 18.672 61.5167 19.008C61.3887 19.328 61.3087 19.568 61.2767 19.728L61.1807 20.112V20.136L60.4367 22.128C60.4367 22.16 60.4367 22.184 60.4367 22.2C60.4527 22.216 60.4607 22.232 60.4607 22.248C60.3167 22.568 60.1967 22.864 60.1007 23.136C60.0207 23.392 59.9727 23.592 59.9567 23.736C59.9727 23.768 59.9807 23.792 59.9807 23.808C59.9807 23.824 59.9887 23.84 60.0047 23.856C60.1967 23.824 60.4207 23.728 60.6767 23.568C60.9487 23.408 61.2127 23.2 61.4687 22.944C61.7407 22.688 62.0047 22.4 62.2607 22.08C62.5327 21.76 62.7647 21.424 62.9567 21.072C63.0367 20.944 63.1167 20.8 63.1967 20.64C63.2767 20.464 63.3567 20.288 63.4367 20.112C63.5487 19.888 63.6687 19.656 63.7967 19.416C63.9247 19.176 64.0447 18.952 64.1567 18.744C64.2847 18.536 64.4047 18.368 64.5167 18.24C64.6447 18.112 64.7487 18.048 64.8287 18.048C64.9087 18.048 64.9647 18.08 64.9967 18.144C65.0447 18.192 65.0687 18.248 65.0687 18.312C65.1007 18.424 65.0767 18.528 64.9967 18.624L64.7327 19.176L64.5407 19.608C64.4607 19.752 64.3887 19.904 64.3247 20.064C64.2607 20.224 64.1647 20.4 64.0367 20.592L63.1487 21.984L63.1727 21.96C63.1087 22.104 63.0127 22.264 62.8847 22.44C62.7727 22.616 62.6447 22.792 62.5007 22.968C62.3567 23.128 62.2047 23.28 62.0447 23.424C61.8847 23.568 61.7327 23.672 61.5887 23.736H61.6127C61.5647 23.784 61.4767 23.856 61.3487 23.952C61.2207 24.048 61.0847 24.152 60.9407 24.264C60.8127 24.36 60.6847 24.448 60.5567 24.528C60.4287 24.592 60.3407 24.624 60.2927 24.624C60.2447 24.624 60.1727 24.608 60.0767 24.576L59.9567 24.552C59.8767 24.568 59.7967 24.584 59.7167 24.6C59.6367 24.6 59.5567 24.6 59.4767 24.6C59.2207 24.6 59.0047 24.568 58.8287 24.504C58.4607 24.376 58.1487 24.088 57.8927 23.64C57.6367 23.192 57.4847 22.656 57.4367 22.032C57.4207 21.84 57.4447 21.584 57.5087 21.264C57.5887 20.928 57.6927 20.56 57.8207 20.16C57.9487 19.76 58.0927 19.352 58.2527 18.936C58.4127 18.504 58.5727 18.104 58.7327 17.736C58.7647 17.704 58.8047 17.632 58.8527 17.52C58.9167 17.392 58.9887 17.272 59.0687 17.16C59.1647 16.984 59.2527 16.824 59.3327 16.68C59.4127 16.52 59.4447 16.376 59.4287 16.248L59.5247 16.08C59.5727 16 59.5967 15.96 59.5967 15.96C59.6127 15.944 59.6207 15.928 59.6207 15.912C59.5727 15.944 59.5247 15.984 59.4767 16.032C59.4287 16.064 59.3807 16.096 59.3327 16.128C59.2527 16.256 59.1007 16.456 58.8767 16.728C58.6687 16.984 58.4767 17.2 58.3007 17.376L57.5567 18.528C57.4607 18.704 57.3327 18.92 57.1727 19.176C57.0127 19.432 56.8447 19.688 56.6687 19.944L56.4767 20.256L56.5727 20.064Z" fill="url(#paint3_linear_20_678)"/>
<path d="M69.0054 24.072C68.9094 24.152 68.7734 24.272 68.5974 24.432C68.4374 24.592 68.3094 24.704 68.2134 24.768C68.1334 24.848 68.0134 24.936 67.8534 25.032C67.7094 25.144 67.5334 25.24 67.3254 25.32C67.1334 25.4 66.9254 25.464 66.7014 25.512C66.4934 25.576 66.2934 25.608 66.1014 25.608C65.9414 25.608 65.7174 25.488 65.4294 25.248C65.1414 25.008 64.9014 24.76 64.7094 24.504C64.6294 24.728 64.5574 24.92 64.4934 25.08C64.4294 25.256 64.3654 25.344 64.3014 25.344C64.2214 25.344 64.1094 25.312 63.9654 25.248C63.8214 25.184 63.6694 25.096 63.5094 24.984C63.3494 24.888 63.2134 24.768 63.1014 24.624C62.9894 24.48 62.9334 24.32 62.9334 24.144C62.9334 24.112 62.9414 24.08 62.9574 24.048C62.9574 24 62.9574 23.96 62.9574 23.928C62.9574 23.896 62.9574 23.872 62.9574 23.856C62.9414 23.84 62.9334 23.824 62.9334 23.808C62.9654 23.152 63.0694 22.432 63.2454 21.648C63.4214 20.848 63.5894 20.056 63.7494 19.272L64.3974 17.472C64.4454 17.328 64.4694 17.208 64.4694 17.112V16.968C64.4694 16.92 64.4694 16.872 64.4694 16.824C64.4694 16.76 64.4774 16.688 64.4934 16.608C64.6214 16.336 64.7014 16.128 64.7334 15.984C64.7814 15.824 64.8054 15.704 64.8054 15.624C64.8054 15.544 64.7894 15.496 64.7574 15.48C64.7414 15.448 64.7334 15.416 64.7334 15.384C64.7334 15.336 64.7734 15.264 64.8534 15.168C64.9494 15.056 65.1334 14.84 65.4054 14.52H65.6454C65.6614 14.52 65.6774 14.512 65.6934 14.496C65.7254 14.464 65.7574 14.448 65.7894 14.448C65.9334 14.448 66.0854 14.504 66.2454 14.616C66.4214 14.712 66.5734 14.848 66.7014 15.024C66.8454 15.2 66.9654 15.408 67.0614 15.648C67.1574 15.872 67.2214 16.104 67.2534 16.344C67.2374 16.504 67.2294 16.672 67.2294 16.848C67.2294 17.024 67.2054 17.224 67.1574 17.448L67.1094 17.376C67.1094 17.408 67.0934 17.472 67.0614 17.568C67.0294 17.664 66.9894 17.768 66.9414 17.88C66.9094 17.976 66.8774 18.072 66.8454 18.168C66.8134 18.248 66.7974 18.312 66.7974 18.36V18.384C66.7654 18.48 66.7494 18.56 66.7494 18.624V18.672L67.5414 17.976C67.7014 17.816 67.8694 17.704 68.0454 17.64C68.2214 17.56 68.4694 17.52 68.7894 17.52H69.0774C69.2214 17.52 69.3734 17.56 69.5334 17.64C69.6934 17.704 69.8534 17.8 70.0134 17.928C70.1894 18.056 70.3494 18.2 70.4934 18.36C70.6534 18.52 70.7814 18.688 70.8774 18.864C70.9414 18.992 70.9814 19.12 70.9974 19.248C71.0134 19.376 71.0534 19.528 71.1174 19.704V19.824C71.1174 20.08 71.0694 20.352 70.9734 20.64C70.8774 20.928 70.7574 21.216 70.6134 21.504C70.4854 21.792 70.3414 22.072 70.1814 22.344C70.0214 22.6 69.8774 22.832 69.7494 23.04L69.0054 24.072ZM65.2614 22.728C65.2614 22.792 65.2134 22.944 65.1174 23.184C65.0214 23.408 64.9414 23.632 64.8774 23.856C64.9894 23.936 65.1254 24.056 65.2854 24.216C65.4454 24.36 65.5814 24.432 65.6934 24.432C65.7094 24.432 65.7254 24.424 65.7414 24.408C66.2054 24.184 66.6454 23.808 67.0614 23.28C67.4934 22.736 67.9014 22.232 68.2854 21.768C68.3654 21.624 68.4214 21.496 68.4534 21.384C68.4854 21.256 68.5174 21.136 68.5494 21.024C68.6774 20.688 68.7974 20.336 68.9094 19.968C69.0214 19.584 69.0774 19.24 69.0774 18.936C69.0774 18.76 69.0454 18.6 68.9814 18.456C68.9174 18.296 68.8214 18.216 68.6934 18.216C68.6294 18.216 68.5254 18.224 68.3814 18.24C68.2374 18.24 68.1254 18.264 68.0454 18.312L67.4934 18.672C67.4294 18.672 67.3494 18.72 67.2534 18.816C67.1734 18.896 67.0854 18.992 66.9894 19.104C66.9094 19.216 66.8294 19.328 66.7494 19.44C66.6854 19.552 66.6294 19.632 66.5814 19.68C66.4374 19.824 66.3334 19.928 66.2694 19.992C66.2214 20.04 66.1814 20.104 66.1494 20.184C66.1174 20.248 66.0774 20.36 66.0294 20.52C65.9974 20.68 65.9334 20.936 65.8374 21.288L65.5974 21.96C65.5494 22.072 65.4854 22.176 65.4054 22.272C65.3414 22.368 65.2934 22.52 65.2614 22.728Z" fill="url(#paint4_linear_20_678)"/>
<path d="M74.0589 24.456C74.1229 24.584 74.1549 24.704 74.1549 24.816C74.1549 24.96 74.1149 25.056 74.0349 25.104C73.9549 25.168 73.8669 25.216 73.7709 25.248C73.6589 25.28 73.5789 25.328 73.5309 25.392C73.3869 25.392 73.2109 25.368 73.0029 25.32C72.7949 25.288 72.5949 25.216 72.4029 25.104C72.2109 25.008 72.0429 24.872 71.8989 24.696C71.7549 24.536 71.6749 24.328 71.6589 24.072C71.6589 23.976 71.6589 23.872 71.6589 23.76C71.6749 23.632 71.6989 23.496 71.7309 23.352C71.6989 23.272 71.6989 23.2 71.7309 23.136C71.7629 23.072 71.8029 23 71.8509 22.92V22.944C71.9149 22.816 71.9469 22.728 71.9469 22.68L71.8749 21.984L72.1149 21.408C72.1469 21.328 72.1789 21.24 72.2109 21.144C72.2589 21.048 72.2989 20.952 72.3309 20.856C72.3309 20.76 72.3229 20.664 72.3069 20.568C72.2909 20.456 72.2829 20.352 72.2829 20.256C72.3629 19.936 72.4189 19.608 72.4509 19.272C72.4989 18.92 72.5469 18.584 72.5949 18.264L72.6669 17.568C72.6829 17.488 72.6989 17.4 72.7149 17.304C72.7469 17.192 72.7789 17.08 72.8109 16.968C72.8429 16.872 72.8669 16.784 72.8829 16.704C72.8989 16.608 72.9069 16.536 72.9069 16.488V16.464C72.8909 16.448 72.8829 16.408 72.8829 16.344C72.8509 16.232 72.9149 16.176 73.0749 16.176C73.4269 16.176 73.6589 16.232 73.7709 16.344C73.8829 16.456 73.9789 16.592 74.0589 16.752H74.0349C74.0989 16.864 74.1629 16.976 74.2269 17.088C74.2909 17.184 74.4109 17.272 74.5869 17.352C74.7789 17.448 74.9309 17.568 75.0429 17.712C75.1549 17.84 75.2429 17.976 75.3069 18.12C75.3709 18.248 75.4109 18.376 75.4269 18.504C75.4589 18.616 75.4829 18.712 75.4989 18.792L75.4029 19.128C75.3229 19.4 75.2429 19.672 75.1629 19.944C75.0989 20.216 75.0509 20.52 75.0189 20.856L74.9709 20.976C75.3869 20.944 75.7789 20.896 76.1469 20.832C76.5149 20.768 76.8189 20.68 77.0589 20.568L77.1069 20.064L77.2269 19.848C77.3709 19.592 77.5229 19.312 77.6829 19.008C77.8429 18.688 77.9149 18.432 77.8989 18.24L77.8749 18.048C77.9549 17.872 78.0269 17.672 78.0909 17.448C78.1709 17.224 78.2429 17.016 78.3069 16.824C78.3869 16.568 78.4589 16.36 78.5229 16.2C78.6029 16.024 78.6909 15.936 78.7869 15.936C78.8989 15.936 79.0189 15.968 79.1469 16.032C79.2909 16.096 79.4269 16.192 79.5549 16.32C79.6989 16.448 79.8189 16.608 79.9149 16.8C80.0109 16.976 80.0669 17.176 80.0829 17.4C80.1149 17.544 80.1149 17.72 80.0829 17.928C80.3069 18.12 80.4509 18.272 80.5149 18.384C80.5789 18.48 80.6189 18.616 80.6349 18.792C80.5869 19.064 80.5309 19.352 80.4669 19.656C80.4029 19.944 80.3309 20.232 80.2509 20.52L80.1789 20.808L80.2029 21.24C80.1709 21.32 80.1309 21.408 80.0829 21.504C80.0509 21.584 80.0109 21.672 79.9629 21.768H79.9869C79.8909 21.96 79.8029 22.16 79.7229 22.368C79.6429 22.56 79.5949 22.72 79.5789 22.848C79.5949 22.88 79.6029 22.904 79.6029 22.92C79.6189 22.936 79.6269 22.96 79.6269 22.992C79.6269 23.088 79.6189 23.16 79.6029 23.208V23.256C79.3309 23.832 79.1789 24.256 79.1469 24.528C79.1629 24.544 79.1789 24.568 79.1949 24.6C79.2109 24.632 79.2349 24.656 79.2669 24.672C79.3629 24.656 79.4909 24.576 79.6509 24.432C79.8269 24.288 80.0109 24.104 80.2029 23.88C80.4109 23.64 80.6269 23.384 80.8509 23.112C81.0749 22.824 81.2829 22.544 81.4749 22.272L81.6909 21.864C81.8669 21.592 82.0269 21.336 82.1709 21.096C82.3149 20.856 82.4669 20.6 82.6269 20.328H82.6029L82.6749 20.136C82.7229 20.008 82.7789 19.848 82.8429 19.656C82.9069 19.464 82.9789 19.288 83.0589 19.128C83.1549 18.952 83.2509 18.808 83.3469 18.696C83.4589 18.568 83.5709 18.504 83.6829 18.504C83.8269 18.504 83.9149 18.592 83.9469 18.768C83.9629 18.832 83.9389 18.936 83.8749 19.08H83.8989C83.8989 19.096 83.8509 19.168 83.7549 19.296C83.6749 19.424 83.5869 19.592 83.4909 19.8C83.3949 19.992 83.3629 20.152 83.3949 20.28C83.3309 20.44 83.2349 20.624 83.1069 20.832C82.9949 21.024 82.8669 21.216 82.7229 21.408C82.6429 21.728 82.5309 21.992 82.3869 22.2L81.4269 23.544L81.4509 23.52C81.4189 23.6 81.3869 23.656 81.3549 23.688C81.3389 23.72 81.3149 23.752 81.2829 23.784C81.2509 23.816 81.2189 23.848 81.1869 23.88C81.1709 23.896 81.1549 23.92 81.1389 23.952C80.9949 24.208 80.8109 24.432 80.5869 24.624C80.3789 24.816 80.1629 24.976 79.9389 25.104C79.7149 25.248 79.5069 25.352 79.3149 25.416C79.1229 25.496 78.9709 25.536 78.8589 25.536C78.7949 25.536 78.7389 25.528 78.6909 25.512C78.6589 25.512 78.6189 25.504 78.5709 25.488H78.5229C78.2989 25.456 78.0989 25.376 77.9229 25.248C77.7469 25.12 77.5949 24.96 77.4669 24.768C77.3389 24.592 77.2349 24.4 77.1549 24.192C77.0749 23.968 77.0269 23.752 77.0109 23.544C76.9789 23.304 76.9869 23.096 77.0349 22.92C76.9869 22.888 76.9789 22.792 77.0109 22.632C77.0429 22.472 77.0749 22.296 77.1069 22.104C77.1389 21.928 77.1629 21.784 77.1789 21.672C77.2109 21.544 77.2269 21.432 77.2269 21.336L76.9149 21.528L76.5789 21.744H76.4589C76.2349 21.776 76.0109 21.808 75.7869 21.84C75.5789 21.872 75.3389 21.896 75.0669 21.912L74.6349 22.008C74.5869 22.056 74.5629 22.112 74.5629 22.176C74.4029 22.608 74.2589 23.008 74.1309 23.376C74.0189 23.744 73.9709 24 73.9869 24.144V24.264C73.9869 24.376 74.0029 24.432 74.0349 24.432L74.0589 24.456Z" fill="url(#paint5_linear_20_678)"/>
<path d="M88.1494 15.312C88.3094 15.36 88.4934 15.44 88.7014 15.552C88.9254 15.664 89.1334 15.8 89.3254 15.96C89.5334 16.104 89.7014 16.256 89.8294 16.416C89.9734 16.56 90.0534 16.688 90.0694 16.8C90.1014 17.056 90.0054 17.208 89.7814 17.256C89.7494 17.24 89.6934 17.232 89.6134 17.232C89.3414 17.232 88.9734 17.288 88.5094 17.4C88.0614 17.512 87.7014 17.712 87.4294 18L86.9974 18.408C86.7734 18.6 86.5494 18.808 86.3254 19.032C86.1174 19.256 85.9814 19.504 85.9174 19.776C85.7894 19.968 85.6854 20.152 85.6054 20.328C85.5414 20.504 85.4694 20.688 85.3894 20.88L85.1734 21.336C85.0934 21.512 85.0134 21.68 84.9334 21.84C84.8694 21.984 84.7974 22.168 84.7174 22.392L84.6934 22.536V22.512C84.6614 22.592 84.6294 22.688 84.5974 22.8C84.5814 22.896 84.5734 22.96 84.5734 22.992L84.5974 23.016L84.6454 23.256C84.6454 23.336 84.6614 23.44 84.6934 23.568C84.7254 23.632 84.7414 23.688 84.7414 23.736C84.7574 23.976 84.8454 24.096 85.0054 24.096H85.0774C85.1734 24.112 85.2934 24.096 85.4374 24.048C85.5974 23.984 85.8134 23.8 86.0854 23.496C86.2774 23.224 86.4694 22.904 86.6614 22.536C86.8694 22.152 87.0614 21.776 87.2374 21.408C87.3654 21.136 87.4854 20.88 87.5974 20.64C87.7254 20.384 87.8534 20.168 87.9814 19.992C88.0294 19.896 88.0694 19.784 88.1014 19.656C88.1494 19.528 88.1894 19.4 88.2214 19.272C88.2694 19.128 88.3174 19.024 88.3654 18.96C88.4134 18.88 88.4534 18.816 88.4854 18.768C88.5334 18.72 88.5974 18.592 88.6774 18.384C88.6774 18.288 88.7574 18.208 88.9174 18.144C89.0774 18.08 89.2694 18.048 89.4934 18.048C89.5574 18.048 89.6134 18.048 89.6614 18.048C89.7094 18.032 89.7574 18.024 89.8054 18.024C90.0134 18.008 90.2134 18.016 90.4054 18.048C90.5974 18.08 90.7894 18.184 90.9814 18.36C90.9974 18.392 91.0054 18.424 91.0054 18.456V18.48L91.0534 18.504H91.0294C91.0934 18.552 91.1494 18.6 91.1974 18.648C91.2454 18.696 91.2774 18.768 91.2934 18.864C91.3094 18.896 91.2854 18.992 91.2214 19.152C91.1734 19.296 91.1174 19.448 91.0534 19.608C91.0054 19.736 90.9654 19.848 90.9334 19.944C90.9014 20.04 90.8854 20.104 90.8854 20.136C90.8854 20.2 90.8694 20.28 90.8374 20.376C90.8054 20.456 90.7654 20.56 90.7174 20.688C90.6854 20.816 90.6694 21.016 90.6694 21.288C90.6534 21.48 90.6214 21.656 90.5734 21.816C90.5414 21.96 90.4934 22.104 90.4294 22.248C90.3974 22.344 90.3654 22.44 90.3334 22.536C90.3014 22.632 90.2694 22.736 90.2374 22.848L89.9494 23.712C89.7894 24.032 89.7174 24.232 89.7334 24.312C89.7334 24.344 89.7734 24.368 89.8534 24.384C89.9494 24.4 90.0294 24.408 90.0934 24.408C90.2374 24.408 90.3974 24.344 90.5734 24.216C90.7494 24.088 90.9254 23.936 91.1014 23.76C91.2774 23.568 91.4454 23.368 91.6054 23.16C91.7654 22.936 91.9014 22.728 92.0134 22.536L92.7334 21.264C92.7974 21.168 92.8774 21.056 92.9734 20.928C93.0694 20.784 93.1574 20.616 93.2374 20.424C93.2854 20.312 93.3574 20.192 93.4534 20.064C93.5494 19.92 93.6294 19.784 93.6934 19.656L94.2694 18.744C94.3494 18.664 94.4454 18.624 94.5574 18.624C94.7014 18.624 94.7814 18.704 94.7974 18.864C94.7974 18.96 94.7894 19.048 94.7734 19.128C94.7734 19.192 94.7014 19.328 94.5574 19.536C94.4614 19.664 94.3334 19.84 94.1734 20.064C94.0294 20.288 93.8534 20.584 93.6454 20.952C93.5654 21.064 93.4454 21.248 93.2854 21.504C93.1254 21.744 92.9574 22.008 92.7814 22.296C92.5894 22.616 92.4054 22.92 92.2294 23.208C92.0534 23.48 91.9174 23.68 91.8214 23.808C91.7734 23.92 91.6774 24.056 91.5334 24.216C91.4054 24.376 91.2534 24.528 91.0774 24.672C90.9174 24.816 90.7494 24.944 90.5734 25.056C90.4134 25.168 90.2774 25.224 90.1654 25.224L89.9734 25.296C89.8774 25.328 89.7814 25.36 89.6854 25.392C89.6054 25.424 89.5174 25.44 89.4214 25.44C89.2294 25.44 89.0374 25.384 88.8454 25.272C88.6694 25.176 88.5014 25.048 88.3414 24.888C88.1974 24.728 88.0694 24.56 87.9574 24.384C87.8454 24.192 87.7654 24.024 87.7174 23.88C87.6374 23.672 87.5974 23.448 87.5974 23.208C87.5814 23.144 87.5734 23.08 87.5734 23.016C87.5734 22.936 87.5734 22.864 87.5734 22.8C87.5734 22.736 87.5734 22.672 87.5734 22.608C87.5734 22.544 87.5654 22.472 87.5494 22.392L87.5254 22.2C87.5254 22.184 87.5254 22.176 87.5254 22.176C87.5414 22.16 87.5494 22.144 87.5494 22.128C87.5654 22.048 87.5734 22.016 87.5734 22.032C87.5734 22.048 87.5734 22.04 87.5734 22.008L87.2374 22.512V22.488L86.7814 23.4C86.7174 23.464 86.6694 23.528 86.6374 23.592C86.6054 23.64 86.5734 23.696 86.5414 23.76C86.4134 23.968 86.2694 24.16 86.1094 24.336C85.9654 24.512 85.8214 24.608 85.6774 24.624L85.5814 24.696C85.4214 24.824 85.2694 24.928 85.1254 25.008C84.9974 25.104 84.8774 25.152 84.7654 25.152C84.4774 25.152 84.1654 25.104 83.8294 25.008C83.5094 24.928 83.2054 24.792 82.9174 24.6C82.6454 24.408 82.4134 24.16 82.2214 23.856C82.0294 23.552 81.9094 23.184 81.8614 22.752C81.8454 22.48 81.8694 22.192 81.9334 21.888C81.9814 21.568 82.0614 21.24 82.1734 20.904C82.2854 20.568 82.4214 20.232 82.5814 19.896C82.7414 19.56 82.9174 19.24 83.1094 18.936L83.3254 18.456C83.5174 18.2 83.7014 17.96 83.8774 17.736C84.0694 17.512 84.2534 17.312 84.4294 17.136C84.7654 16.784 85.1014 16.488 85.4374 16.248L85.7974 16.08H85.7734C86.0934 15.856 86.4774 15.672 86.9254 15.528C87.3894 15.384 87.7574 15.312 88.0294 15.312H88.1494Z" fill="url(#paint6_linear_20_678)"/>
<path d="M98.118 23.208L98.022 23.304L97.782 23.52L97.566 23.712L96.966 24.12L96.678 24.264L96.414 24.36C96.35 24.392 96.302 24.408 96.27 24.408C96.254 24.408 96.238 24.416 96.222 24.432C96.222 24.432 96.214 24.432 96.198 24.432L95.79 24.504C95.758 24.504 95.726 24.512 95.694 24.528C95.662 24.528 95.63 24.528 95.598 24.528H95.478C95.142 24.496 94.862 24.456 94.638 24.408C94.414 24.344 94.222 24.256 94.062 24.144C93.806 23.968 93.614 23.696 93.486 23.328L93.462 23.232C93.43 23.136 93.406 23.04 93.39 22.944C93.374 22.832 93.358 22.712 93.342 22.584L93.294 22.32L93.246 21.768V21.624C93.23 21.592 93.222 21.536 93.222 21.456V21.264C93.238 21.088 93.286 20.864 93.366 20.592C93.462 20.32 93.558 20.048 93.654 19.776C93.766 19.488 93.878 19.216 93.99 18.96C94.102 18.704 94.198 18.488 94.278 18.312C94.358 18.136 94.422 18.008 94.47 17.928C94.534 17.848 94.662 17.856 94.854 17.952C95.014 18.032 95.142 18.096 95.238 18.144C95.334 18.176 95.406 18.216 95.454 18.264H95.478C95.51 18.328 95.526 18.376 95.526 18.408L95.55 18.432C95.55 18.464 95.542 18.496 95.526 18.528C95.526 18.56 95.526 18.6 95.526 18.648L95.43 19.008C95.43 19.04 95.414 19.12 95.382 19.248L95.334 19.656C95.334 19.672 95.326 19.688 95.31 19.704V19.824C95.31 19.824 95.302 19.84 95.286 19.872V19.944C95.286 19.96 95.278 19.968 95.262 19.968V20.064L95.238 20.112V20.136C95.222 20.136 95.214 20.144 95.214 20.16V20.208L95.19 20.232C95.174 20.296 95.166 20.376 95.166 20.472C95.15 20.552 95.126 20.624 95.094 20.688C95.078 20.752 95.078 20.808 95.094 20.856V20.88L95.166 21.144C95.166 21.272 95.134 21.408 95.07 21.552L95.022 21.648L95.07 22.08C95.086 22.288 95.094 22.488 95.094 22.68C95.11 22.856 95.15 23.008 95.214 23.136L95.262 23.256C95.374 23.448 95.55 23.544 95.79 23.544C95.886 23.544 95.982 23.504 96.078 23.424L96.174 23.472H96.198C96.39 23.376 96.598 23.24 96.822 23.064C97.046 22.872 97.27 22.664 97.494 22.44C97.718 22.216 97.934 21.984 98.142 21.744C98.366 21.504 98.558 21.272 98.718 21.048L99.318 20.256C98.902 20.432 98.574 20.512 98.334 20.496C98.094 20.48 97.902 20.392 97.758 20.232C97.614 20.072 97.502 19.856 97.422 19.584C97.358 19.312 97.294 19 97.23 18.648C97.182 18.36 97.19 18.064 97.254 17.76C97.318 17.456 97.414 17.176 97.542 16.92C97.686 16.648 97.854 16.408 98.046 16.2C98.238 15.976 98.446 15.8 98.67 15.672L99.222 15.432C99.334 15.384 99.486 15.344 99.678 15.312C99.87 15.28 100.07 15.264 100.278 15.264C100.486 15.264 100.686 15.28 100.878 15.312C101.07 15.344 101.222 15.4 101.334 15.48C101.526 15.608 101.686 15.784 101.814 16.008C101.942 16.232 102.038 16.448 102.102 16.656C102.166 16.864 102.206 17.048 102.222 17.208C102.238 17.352 102.238 17.416 102.222 17.4C102.238 17.544 102.214 17.68 102.15 17.808C102.102 17.92 102.03 18.04 101.934 18.168C101.838 18.296 101.726 18.44 101.598 18.6C101.486 18.744 101.374 18.912 101.262 19.104C101.406 19.072 101.598 18.952 101.838 18.744C102.078 18.536 102.31 18.32 102.534 18.096C102.774 17.856 102.982 17.664 103.158 17.52C103.334 17.36 103.422 17.32 103.422 17.4C103.646 17.256 103.854 17.232 104.046 17.328C104.254 17.424 104.43 17.568 104.574 17.76C104.718 17.952 104.822 18.16 104.886 18.384C104.95 18.608 104.958 18.776 104.91 18.888C104.878 19.016 104.83 19.12 104.766 19.2C104.718 19.264 104.662 19.328 104.598 19.392C104.422 19.568 104.302 19.768 104.238 19.992L104.142 20.328V20.352L103.302 22.368V22.488C103.158 22.808 103.126 23.08 103.206 23.304C103.286 23.512 103.326 23.688 103.326 23.832C103.326 23.912 103.342 23.96 103.374 23.976C103.582 23.944 103.814 23.848 104.07 23.688C104.326 23.528 104.582 23.328 104.838 23.088C105.11 22.832 105.374 22.544 105.63 22.224C105.902 21.888 106.142 21.544 106.35 21.192C106.43 21.064 106.502 20.92 106.566 20.76C106.646 20.584 106.734 20.408 106.83 20.232C106.926 20.008 107.038 19.776 107.166 19.536C107.294 19.296 107.422 19.072 107.55 18.864C107.678 18.656 107.798 18.488 107.91 18.36C108.022 18.232 108.118 18.168 108.198 18.168C108.294 18.168 108.358 18.208 108.39 18.288C108.422 18.368 108.438 18.44 108.438 18.504C108.438 18.6 108.414 18.68 108.366 18.744L108.102 19.296L107.862 19.8L107.406 20.688L106.518 22.08C106.454 22.224 106.358 22.384 106.23 22.56C106.118 22.736 105.99 22.912 105.846 23.088C105.702 23.248 105.55 23.4 105.39 23.544C105.23 23.672 105.086 23.776 104.958 23.856C104.894 23.904 104.798 23.976 104.67 24.072C104.542 24.168 104.414 24.264 104.286 24.36C104.158 24.456 104.03 24.544 103.902 24.624C103.79 24.688 103.71 24.72 103.662 24.72C103.566 24.72 103.502 24.712 103.47 24.696L103.326 24.648C103.246 24.68 103.166 24.696 103.086 24.696C103.006 24.696 102.926 24.696 102.846 24.696C102.654 24.696 102.422 24.656 102.15 24.576C101.894 24.496 101.646 24.384 101.406 24.24C101.166 24.08 100.958 23.904 100.782 23.712C100.622 23.504 100.542 23.28 100.542 23.04C100.542 22.912 100.534 22.824 100.518 22.776C100.502 22.728 100.478 22.68 100.446 22.632H100.47C100.438 22.584 100.414 22.528 100.398 22.464C100.398 22.4 100.398 22.328 100.398 22.248C100.398 22.072 100.43 21.856 100.494 21.6C100.462 21.616 100.486 21.544 100.566 21.384C100.646 21.224 100.734 21.048 100.83 20.856C100.942 20.664 101.038 20.496 101.118 20.352C101.198 20.192 101.214 20.128 101.166 20.16L100.518 20.376L99.678 21.552L98.214 23.184L98.118 23.208ZM99.318 19.416C99.35 19.432 99.382 19.44 99.414 19.44C99.462 19.424 99.502 19.416 99.534 19.416C99.854 19.208 100.118 18.912 100.326 18.528C100.55 18.144 100.718 17.832 100.83 17.592V17.448C100.83 17.4 100.806 17.328 100.758 17.232C100.726 17.136 100.67 17.04 100.59 16.944C100.526 16.848 100.422 16.76 100.278 16.68C100.15 16.584 99.99 16.528 99.798 16.512H99.606C99.318 16.56 99.086 16.656 98.91 16.8C98.75 16.944 98.622 17.104 98.526 17.28C98.446 17.44 98.39 17.6 98.358 17.76C98.342 17.904 98.342 18 98.358 18.048C98.358 18.08 98.366 18.104 98.382 18.12C98.43 18.12 98.454 18.136 98.454 18.168C98.454 18.2 98.446 18.232 98.43 18.264C98.43 18.296 98.43 18.328 98.43 18.36C98.398 18.456 98.382 18.512 98.382 18.528C98.446 18.864 98.534 19.144 98.646 19.368C98.774 19.576 98.998 19.592 99.318 19.416ZM101.862 16.968L101.838 16.992V17.016L101.862 16.968Z" fill="url(#paint7_linear_20_678)"/>
<path d="M13.416 39.888C13.416 39.888 13.432 39.864 13.464 39.816C13.512 39.752 13.56 39.688 13.608 39.624C13.656 39.56 13.696 39.504 13.728 39.456C13.776 39.392 13.8 39.36 13.8 39.36L13.992 39.288C14.072 39.288 14.128 39.368 14.16 39.528C14.16 39.544 14.168 39.552 14.184 39.552L14.208 39.576C14.192 39.64 14.12 39.816 13.992 40.104C13.864 40.376 13.712 40.672 13.536 40.992C13.36 41.296 13.176 41.584 12.984 41.856C12.792 42.128 12.624 42.288 12.48 42.336L12.456 42.432C12.312 42.56 12.232 42.64 12.216 42.672C12.2 42.688 12.192 42.704 12.192 42.72C12.192 42.72 12.168 42.736 12.12 42.768C12.088 42.8 11.976 42.888 11.784 43.032C11.688 43.064 11.592 43.112 11.496 43.176C11.4 43.224 11.312 43.264 11.232 43.296C11.104 43.344 11.024 43.384 10.992 43.416C10.96 43.448 10.912 43.496 10.848 43.56C10.8 43.928 10.672 44.28 10.464 44.616C10.272 44.952 10.08 45.232 9.888 45.456C9.456 45.92 9.04 46.32 8.64 46.656C8.256 46.992 7.8 47.16 7.272 47.16L6.84 47.184C6.76 47.2 6.664 47.208 6.552 47.208C6.44 47.224 6.328 47.232 6.216 47.232C5.544 47.072 5.104 46.912 4.896 46.752C4.704 46.592 4.6 46.384 4.584 46.128C4.552 45.872 4.616 45.64 4.776 45.432C4.936 45.208 5.136 45.008 5.376 44.832C5.616 44.656 5.872 44.504 6.144 44.376C6.416 44.248 6.656 44.136 6.864 44.04L7.224 43.872H7.2C7.264 43.824 7.392 43.64 7.584 43.32C7.792 43 8 42.616 8.208 42.168C8.432 41.704 8.616 41.216 8.76 40.704C8.92 40.176 8.976 39.688 8.928 39.24C8.928 39.224 8.92 39.208 8.904 39.192C8.904 39.16 8.896 39.136 8.88 39.12C8.88 39.088 8.88 39.056 8.88 39.024L8.832 38.928C8.768 38.832 8.688 38.72 8.592 38.592C8.512 38.464 8.424 38.392 8.328 38.376C8.104 38.424 7.832 38.576 7.512 38.832C7.192 39.088 6.856 39.408 6.504 39.792C6.152 40.176 5.808 40.608 5.472 41.088C5.152 41.552 4.88 42.024 4.656 42.504C4.672 42.6 4.68 42.696 4.68 42.792C4.696 42.888 4.72 42.992 4.752 43.104L4.8 43.536L4.272 44.808C4.288 44.984 4.256 45.192 4.176 45.432C4.112 45.672 4.04 45.912 3.96 46.152C3.928 46.232 3.904 46.304 3.888 46.368C3.872 46.448 3.848 46.528 3.816 46.608C3.848 46.928 3.832 47.2 3.768 47.424C3.704 47.648 3.624 47.872 3.528 48.096L3.36 48.576V48.696C3.264 48.952 3.184 49.2 3.12 49.44C3.072 49.68 3.016 49.92 2.952 50.16C2.824 50.72 2.656 51.232 2.448 51.696C2.256 52.16 1.944 52.448 1.512 52.56L1.104 52.824C1.104 52.952 1.048 53.016 0.936 53.016C0.888 53.016 0.816 52.976 0.72 52.896C0.608 52.832 0.504 52.744 0.408 52.632C0.312 52.52 0.224 52.384 0.144 52.224C0.0640001 52.08 0.016 51.928 0 51.768C0 51.4 0.032 51 0.096 50.568C0.144 50.152 0.216 49.712 0.312 49.248L0.432 48.768C0.48 48.576 0.528 48.368 0.576 48.144C0.608 47.936 0.608 47.696 0.576 47.424L0.648 47.256C0.728 47.08 0.816 46.88 0.912 46.656C0.992 46.432 1.016 46.232 0.984 46.056L1.416 44.712C1.4 44.696 1.392 44.648 1.392 44.568V44.16L1.536 43.704C1.616 43.496 1.688 43.288 1.752 43.08C1.8 42.872 1.816 42.656 1.8 42.432L1.776 42.288L2.232 41.16C2.584 40.232 2.84 39.456 3 38.832C3.16 38.208 3.224 37.768 3.192 37.512C3.192 37.448 3.192 37.384 3.192 37.32C3.192 37.24 3.184 37.16 3.168 37.08C3.152 36.84 3.168 36.632 3.216 36.456C3.264 36.264 3.448 36.168 3.768 36.168C3.992 36.168 4.224 36.264 4.464 36.456C4.72 36.648 4.888 37.016 4.968 37.56L5.112 37.656C5.336 37.864 5.472 38.08 5.52 38.304C5.568 38.512 5.608 38.768 5.64 39.072C5.656 39.168 5.664 39.272 5.664 39.384C5.664 39.496 5.656 39.584 5.64 39.648L5.88 39.336L5.976 39.24C6.12 39.08 6.288 38.896 6.48 38.688C6.688 38.48 6.904 38.296 7.128 38.136C7.352 37.96 7.592 37.816 7.848 37.704C8.12 37.576 8.4 37.512 8.688 37.512C8.96 37.512 9.2 37.576 9.408 37.704C9.632 37.816 9.824 37.96 9.984 38.136C10.144 38.296 10.272 38.472 10.368 38.664C10.48 38.856 10.576 39.032 10.656 39.192L11.136 39.624L11.16 39.72C11.192 39.848 11.216 39.968 11.232 40.08C11.248 40.176 11.264 40.288 11.28 40.416C11.312 40.736 11.304 41.096 11.256 41.496C11.208 41.88 11.112 42.256 10.968 42.624C11.288 42.496 11.56 42.352 11.784 42.192C12.008 42.032 12.208 41.848 12.384 41.64C12.56 41.416 12.728 41.16 12.888 40.872C13.048 40.584 13.224 40.256 13.416 39.888ZM7.056 44.712C6.944 44.776 6.816 44.856 6.672 44.952C6.544 45.032 6.408 45.128 6.264 45.24C6.136 45.336 6.016 45.44 5.904 45.552C5.808 45.664 5.736 45.768 5.688 45.864C5.704 45.928 5.736 45.96 5.784 45.96C5.864 45.96 6 45.896 6.192 45.768C6.384 45.656 6.544 45.512 6.672 45.336L7.056 44.712Z" fill="url(#paint8_linear_20_678)"/>
<path d="M19.4393 45.36L19.3433 45.6C19.3113 45.68 19.2793 45.768 19.2473 45.864C19.2313 45.96 19.2073 46.048 19.1753 46.128C19.1433 46.208 19.1193 46.264 19.1033 46.296C19.1033 46.328 19.0873 46.384 19.0553 46.464C19.1353 46.464 19.2232 46.472 19.3193 46.488C19.4152 46.504 19.5032 46.512 19.5833 46.512C19.9032 46.56 20.2472 46.696 20.6152 46.92C20.9832 47.144 21.3193 47.432 21.6233 47.784C21.9433 48.136 22.2153 48.536 22.4393 48.984C22.6633 49.448 22.7993 49.92 22.8473 50.4C22.8793 50.768 22.8313 51.176 22.7033 51.624C22.5913 52.072 22.3833 52.552 22.0793 53.064C21.9993 53.48 21.8073 53.792 21.5033 54C21.1993 54.208 20.8713 54.384 20.5193 54.528C20.3273 54.608 20.1353 54.688 19.9433 54.768C19.7673 54.848 19.6153 54.952 19.4873 55.08C19.3593 55.16 19.2553 55.2 19.1753 55.2C19.0153 55.2 18.9113 55.12 18.8633 54.96C18.8153 54.8 18.7832 54.656 18.7673 54.528C18.7512 54.416 18.7753 54.344 18.8393 54.312C18.9033 54.296 18.9592 54.288 19.0072 54.288C19.0392 54.288 19.0713 54.296 19.1033 54.312C19.1513 54.328 19.1913 54.344 19.2233 54.36L19.3193 54.408C19.3352 54.408 19.4073 54.392 19.5353 54.36C19.6633 54.344 19.8233 54.296 20.0153 54.216C20.2233 54.136 20.4472 54.008 20.6873 53.832C20.9433 53.656 21.1913 53.408 21.4313 53.088C21.6553 52.672 21.8073 52.256 21.8873 51.84C21.9833 51.424 22.0152 51.032 21.9832 50.664C21.9032 49.896 21.6153 49.248 21.1193 48.72C20.8953 48.304 20.5913 48.016 20.2073 47.856C19.8393 47.696 19.3272 47.6 18.6712 47.568C18.4312 48.256 18.1193 49.008 17.7353 49.824C17.3673 50.656 16.9512 51.424 16.4872 52.128C16.0392 52.848 15.5513 53.448 15.0233 53.928C14.5113 54.408 13.9752 54.648 13.4152 54.648C12.5512 54.648 11.9513 54.496 11.6153 54.192C11.2793 53.888 11.0873 53.432 11.0393 52.824C11.0233 52.744 11.0153 52.656 11.0153 52.56C11.0153 52.48 11.0153 52.392 11.0153 52.296C11.0153 52.2 11.0153 52.096 11.0153 51.984C11.0153 51.888 11.0233 51.784 11.0393 51.672C11.0873 50.936 11.2952 50.24 11.6632 49.584C12.0312 48.928 12.4713 48.352 12.9833 47.856C13.4953 47.376 14.0313 46.992 14.5913 46.704C15.1513 46.416 15.6473 46.272 16.0793 46.272H16.1753C16.2073 46.128 16.2392 45.976 16.2712 45.816C16.3032 45.672 16.3353 45.536 16.3673 45.408C16.3513 45.28 16.3353 45.16 16.3193 45.048C16.3193 44.936 16.3353 44.832 16.3673 44.736L16.5112 44.304L16.3193 44.472L16.0793 44.808C15.6953 45.368 15.1673 45.648 14.4953 45.648C14.3673 45.648 14.2153 45.608 14.0393 45.528C13.8793 45.448 13.7192 45.344 13.5592 45.216C13.3992 45.088 13.2553 44.936 13.1273 44.76C13.0153 44.568 12.9513 44.36 12.9353 44.136C12.9353 43.976 12.9673 43.808 13.0312 43.632C12.9673 43.52 12.9273 43.424 12.9113 43.344C12.8953 43.248 12.8872 43.16 12.8872 43.08L12.8632 42.696C12.8632 42.632 12.8553 42.568 12.8393 42.504C12.8393 42.44 12.8393 42.376 12.8393 42.312L12.7913 41.76C12.7913 41.616 12.8313 41.44 12.9113 41.232C12.9433 41.088 12.9752 40.936 13.0072 40.776C13.0552 40.616 13.0713 40.464 13.0553 40.32L13.4392 38.856C13.4712 38.792 13.4712 38.728 13.4392 38.664C13.4392 38.568 13.4312 38.496 13.4152 38.448C13.4312 38.32 13.4473 38.2 13.4633 38.088C13.4953 37.96 13.5272 37.832 13.5592 37.704C13.6072 37.464 13.6552 37.216 13.7032 36.96C13.7512 36.688 13.7673 36.44 13.7513 36.216C13.7353 36.184 13.7273 36.152 13.7273 36.12C13.7273 36.072 13.7113 36.016 13.6793 35.952C13.6793 35.84 13.7352 35.784 13.8472 35.784C14.0232 35.784 14.2313 35.832 14.4713 35.928C14.7273 36.024 14.9672 36.152 15.1912 36.312C15.4312 36.472 15.6313 36.656 15.7913 36.864C15.9673 37.072 16.0633 37.296 16.0793 37.536L16.1993 39.576L15.9833 40.32C15.9513 40.416 15.9193 40.512 15.8873 40.608C15.8713 40.704 15.8473 40.808 15.8153 40.92C15.7833 41.192 15.7353 41.464 15.6713 41.736C15.6233 42.008 15.5673 42.272 15.5033 42.528C15.4873 42.56 15.4792 42.608 15.4792 42.672V42.84C15.4632 42.84 15.4393 42.88 15.4073 42.96C15.3753 43.04 15.3433 43.144 15.3113 43.272C15.2793 43.384 15.2472 43.512 15.2153 43.656C15.1992 43.8 15.1912 43.928 15.1912 44.04C15.2072 44.088 15.2233 44.136 15.2393 44.184C15.2553 44.232 15.2793 44.264 15.3113 44.28C15.5193 44.232 15.7833 44.008 16.1033 43.608C16.4393 43.192 16.7672 42.736 17.0872 42.24C17.4072 41.776 17.7033 41.248 17.9753 40.656C18.2473 40.048 18.4713 39.456 18.6473 38.88C18.7113 38.704 18.7512 38.52 18.7673 38.328C18.7993 38.136 18.8313 37.952 18.8633 37.776C18.8953 37.52 18.9352 37.304 18.9832 37.128C19.0312 36.952 19.1272 36.864 19.2712 36.864C19.3512 36.864 19.4633 36.904 19.6073 36.984C19.7513 37.048 19.8953 37.152 20.0393 37.296C20.1993 37.424 20.3353 37.584 20.4473 37.776C20.5753 37.968 20.6633 38.184 20.7113 38.424C20.7113 38.552 20.7032 38.704 20.6873 38.88C20.6873 39.056 20.6793 39.24 20.6632 39.432C20.6473 39.608 20.6312 39.784 20.6152 39.96C20.6152 40.136 20.6152 40.312 20.6152 40.488C20.6152 40.568 20.6152 40.656 20.6152 40.752C20.6312 40.848 20.6393 40.936 20.6393 41.016C20.6393 41.304 20.5913 41.648 20.4953 42.048C20.3993 42.432 20.2873 42.784 20.1593 43.104L19.8232 44.136L19.4393 45.36ZM12.1433 53.424C12.1593 53.52 12.2232 53.608 12.3352 53.688C12.4472 53.784 12.5433 53.848 12.6233 53.88C12.6393 53.864 12.6633 53.856 12.6953 53.856C12.7913 53.84 12.9113 53.776 13.0553 53.664C13.2153 53.568 13.4073 53.288 13.6313 52.824L14.1833 51.216L15.1433 49.32C15.3193 49 15.4553 48.744 15.5513 48.552C15.6473 48.36 15.6873 48.24 15.6713 48.192C15.6713 48.192 15.6873 48.128 15.7193 48C15.7513 47.872 15.7833 47.728 15.8153 47.568C15.8473 47.408 15.8633 47.304 15.8633 47.256C15.2073 47.336 14.6313 47.568 14.1353 47.952C13.6393 48.336 13.2232 48.784 12.8872 49.296C12.5672 49.824 12.3272 50.368 12.1672 50.928C12.0072 51.504 11.9433 52.008 11.9753 52.44C11.9913 52.632 12.0152 52.808 12.0472 52.968C12.0792 53.128 12.1033 53.248 12.1193 53.328C12.1353 53.344 12.1433 53.376 12.1433 53.424Z" fill="url(#paint9_linear_20_678)"/>
<path d="M33.4048 41.736C33.1808 42.024 32.9488 42.32 32.7088 42.624C32.4688 42.928 32.1888 43.264 31.8688 43.632L31.5808 43.944C31.4528 44.136 31.3008 44.312 31.1248 44.472C30.9648 44.616 30.8608 44.688 30.8128 44.688C30.3008 45.152 29.8288 45.496 29.3968 45.72C28.9648 45.944 28.7088 46.04 28.6288 46.008C28.3888 46.072 28.1488 46.16 27.9088 46.272C27.6848 46.384 27.4528 46.472 27.2128 46.536C26.9728 46.616 26.7088 46.656 26.4208 46.656C26.1488 46.656 25.8448 46.576 25.5088 46.416C25.3488 46.368 25.1808 46.28 25.0048 46.152C24.8448 46.04 24.7008 45.888 24.5728 45.696C24.4928 45.616 24.4128 45.536 24.3328 45.456C24.2528 45.36 24.2048 45.288 24.1888 45.24C24.1728 45.224 24.1568 45.168 24.1408 45.072C24.1248 44.96 24.1168 44.936 24.1168 45C24.0848 44.984 24.0688 44.944 24.0688 44.88C24.0368 44.624 24.0688 44.328 24.1648 43.992C24.2608 43.64 24.3728 43.328 24.5008 43.056C24.6448 42.688 24.8288 42.336 25.0528 42C25.2768 41.648 25.5088 41.296 25.7488 40.944C25.8288 40.816 25.9088 40.688 25.9888 40.56C26.0688 40.416 26.1488 40.272 26.2288 40.128C26.3728 39.968 26.4688 39.792 26.5168 39.6C26.6448 39.408 26.6848 39.208 26.6368 39L26.8768 38.568C26.7648 38.584 26.6528 38.592 26.5408 38.592C26.4288 38.576 26.3168 38.584 26.2048 38.616C25.9648 38.648 25.7568 38.672 25.5808 38.688C25.4208 38.688 25.2128 38.68 24.9568 38.664C24.9088 38.68 24.8528 38.688 24.7888 38.688C24.7248 38.688 24.6768 38.712 24.6448 38.76C24.5968 38.904 24.5328 39.024 24.4528 39.12C24.3728 39.216 24.2928 39.352 24.2128 39.528C24.1808 39.576 24.1408 39.664 24.0928 39.792C24.0608 39.92 24.0208 40.056 23.9728 40.2C23.9408 40.328 23.9008 40.456 23.8528 40.584C23.8048 40.696 23.7648 40.784 23.7328 40.848C23.6048 41.024 23.4848 41.184 23.3728 41.328C23.2608 41.456 23.1808 41.504 23.1328 41.472C22.9408 41.456 22.8368 41.384 22.8208 41.256C22.8208 41.128 22.8528 40.984 22.9168 40.824C22.9968 40.664 23.0848 40.512 23.1808 40.368C23.2928 40.224 23.3488 40.128 23.3488 40.08C23.4768 39.792 23.5968 39.536 23.7088 39.312C23.8048 39.12 23.8928 38.944 23.9728 38.784C24.0528 38.624 24.0928 38.536 24.0928 38.52C23.9648 38.424 23.8768 38.344 23.8288 38.28C23.7808 38.216 23.7408 38.144 23.7088 38.064C23.6768 37.984 23.6448 37.888 23.6128 37.776C23.5808 37.648 23.5168 37.472 23.4208 37.248C23.3568 36.752 23.3808 36.28 23.4928 35.832C23.6048 35.384 23.7568 35 23.9488 34.68C24.1568 34.36 24.3968 34.104 24.6688 33.912C24.9568 33.72 25.2368 33.624 25.5088 33.624C25.8128 33.624 26.0608 33.728 26.2528 33.936C26.4608 34.128 26.5488 34.408 26.5168 34.776C26.4848 35.032 26.3888 35.336 26.2288 35.688C26.0848 36.024 25.9248 36.352 25.7488 36.672C25.5888 36.976 25.4368 37.248 25.2928 37.488C25.1648 37.712 25.1008 37.84 25.1008 37.872C25.1648 37.84 25.3328 37.784 25.6048 37.704C25.8768 37.608 26.1808 37.52 26.5168 37.44C26.8528 37.344 27.1808 37.264 27.5008 37.2C27.8208 37.12 28.0528 37.08 28.1968 37.08L28.3888 37.128C28.5328 37.128 28.6768 37.128 28.8208 37.128C28.9648 37.128 29.1088 37.2 29.2528 37.344L29.5408 37.704C29.6048 37.768 29.6528 37.832 29.6848 37.896C29.7328 37.944 29.7808 38 29.8288 38.064C29.8608 38.112 29.9008 38.168 29.9488 38.232C30.0128 38.296 30.0608 38.368 30.0928 38.448C30.2208 38.752 30.3088 39.056 30.3568 39.36C30.4048 39.664 30.3168 39.952 30.0928 40.224C29.9808 40.48 29.8768 40.704 29.7808 40.896L29.6848 41.04C29.5568 41.168 29.3888 41.312 29.1808 41.472C28.9888 41.616 28.7808 41.784 28.5568 41.976C27.9808 42.584 27.4928 43.208 27.0928 43.848C26.8208 44.28 26.6368 44.656 26.5408 44.976C26.4448 45.296 26.4688 45.496 26.6128 45.576C26.8208 45.672 27.0688 45.688 27.3568 45.624C27.6608 45.56 27.9808 45.448 28.3168 45.288C28.6528 45.128 28.9888 44.944 29.3248 44.736C29.6768 44.512 29.9968 44.296 30.2848 44.088C30.5888 43.864 30.8368 43.664 31.0288 43.488C31.2368 43.312 31.3728 43.184 31.4368 43.104C31.6448 42.88 31.8288 42.696 31.9888 42.552L32.2288 42.24C32.3888 42.048 32.5568 41.856 32.7328 41.664C32.9088 41.456 33.0688 41.248 33.2128 41.04C33.3088 40.896 33.4288 40.704 33.5728 40.464C33.7168 40.224 33.8528 39.992 33.9808 39.768C34.1248 39.544 34.2528 39.352 34.3648 39.192C34.4928 39.032 34.5808 38.952 34.6288 38.952C34.7248 38.952 34.7808 39.008 34.7968 39.12C34.7968 39.184 34.7008 39.408 34.5088 39.792C34.3328 40.16 34.0368 40.68 33.6208 41.352L33.4048 41.736ZM24.3088 36.984C24.2928 37.208 24.3248 37.392 24.4048 37.536C24.4368 37.6 24.4768 37.664 24.5248 37.728C24.6848 37.424 24.8288 37.128 24.9568 36.84C25.1008 36.536 25.2048 36.264 25.2688 36.024C25.3488 35.784 25.3888 35.592 25.3888 35.448C25.3888 35.304 25.3408 35.216 25.2448 35.184C25.1168 35.152 24.9968 35.2 24.8848 35.328C24.7888 35.456 24.6928 35.616 24.5968 35.808C24.5168 36 24.4448 36.208 24.3808 36.432C24.3328 36.64 24.3088 36.824 24.3088 36.984Z" fill="url(#paint10_linear_20_678)"/>
<path d="M33.4967 39.96C33.4967 39.928 33.5047 39.896 33.5207 39.864L33.8087 38.928V38.904L34.0967 37.032L34.2647 36.312C34.2967 36.232 34.3287 36.144 34.3607 36.048C34.4087 35.952 34.4487 35.848 34.4807 35.736C34.5127 35.592 34.5527 35.432 34.6007 35.256C34.6647 35.08 34.7447 34.92 34.8407 34.776C34.9367 34.616 35.0647 34.488 35.2247 34.392C35.3847 34.296 35.5847 34.248 35.8247 34.248C35.9687 34.248 36.1527 34.272 36.3767 34.32C36.6167 34.352 36.7767 34.408 36.8567 34.488C36.9527 34.616 37.0487 34.728 37.1447 34.824C37.2407 34.904 37.3047 35.048 37.3367 35.256C37.4007 35.32 37.4567 35.384 37.5047 35.448C37.5687 35.512 37.6007 35.576 37.6007 35.64L37.4567 36.36C37.4567 36.408 37.4487 36.464 37.4327 36.528C37.4167 36.592 37.3847 36.696 37.3367 36.84C37.3047 36.968 37.2487 37.16 37.1687 37.416C37.0887 37.672 36.9767 38.016 36.8327 38.448C36.8007 38.512 36.7847 38.576 36.7847 38.64C36.7847 38.688 36.7767 38.728 36.7607 38.76C36.7607 38.856 36.7527 38.928 36.7367 38.976C36.7047 39.072 36.6567 39.168 36.5927 39.264C36.5447 39.36 36.4967 39.456 36.4487 39.552C36.4007 39.648 36.3527 39.752 36.3047 39.864C36.2567 39.976 36.2007 40.12 36.1367 40.296L35.7047 41.112L36.7127 40.584C36.9527 40.44 37.1527 40.304 37.3127 40.176C37.4887 40.032 37.6647 39.8 37.8407 39.48L38.3687 38.952C38.4327 38.904 38.4807 38.856 38.5127 38.808C38.5447 38.76 38.5767 38.712 38.6087 38.664C38.6567 38.584 38.7047 38.512 38.7527 38.448C38.8167 38.368 38.8807 38.296 38.9447 38.232C39.0727 38.104 39.1767 37.968 39.2567 37.824C39.3367 37.664 39.4087 37.512 39.4727 37.368L39.5927 37.152V37.128L39.6167 37.104V37.08C39.5847 37.032 39.5527 37.008 39.5207 37.008L39.2087 37.104C38.9207 37.184 38.6887 37.224 38.5127 37.224C38.3687 37.224 38.2807 37.184 38.2487 37.104C38.2167 37.04 38.2007 36.992 38.2007 36.96C38.2007 36.928 38.1927 36.896 38.1767 36.864C38.1767 36.816 38.1927 36.776 38.2247 36.744C38.2407 36.68 38.3367 36.608 38.5127 36.528L39.1127 36.312L39.1367 36.288H39.1847C39.3767 36.208 39.5687 36.152 39.7607 36.12C39.9527 36.072 40.1447 36.048 40.3367 36.048C40.5127 36.048 40.7127 36.088 40.9367 36.168C41.1607 36.232 41.3687 36.328 41.5607 36.456C41.7527 36.584 41.9127 36.744 42.0407 36.936C42.1847 37.112 42.2647 37.312 42.2807 37.536C42.2967 37.616 42.2967 37.696 42.2807 37.776C42.2647 37.84 42.2407 37.912 42.2087 37.992C42.1287 38.296 41.9767 38.592 41.7527 38.88C41.5447 39.152 41.3127 39.416 41.0567 39.672L40.9847 39.768C40.9527 39.832 40.9207 39.872 40.8887 39.888C40.7287 40.064 40.5527 40.208 40.3607 40.32C40.1847 40.432 39.9927 40.536 39.7847 40.632V40.608L39.4007 40.824C39.2247 40.904 39.0487 40.952 38.8727 40.968C38.6967 40.984 38.5207 40.992 38.3447 40.992H38.2967L38.5367 41.088C39.1927 41.344 39.5687 41.912 39.6647 42.792C39.6647 42.936 39.6647 43.088 39.6647 43.248C39.6647 43.408 39.6567 43.552 39.6407 43.68V43.92C39.6087 44 39.5767 44.064 39.5447 44.112C39.5127 44.16 39.4807 44.216 39.4487 44.28L39.3287 44.448L39.3767 44.664C39.3927 44.744 39.4087 44.824 39.4247 44.904C39.4407 44.984 39.4727 45.024 39.5207 45.024C39.6807 45.024 39.8567 44.944 40.0487 44.784C40.2567 44.624 40.4007 44.504 40.4807 44.424H40.4567L40.8407 44.088C40.9207 44.008 41.0007 43.936 41.0807 43.872C41.1607 43.808 41.2327 43.736 41.2967 43.656C41.6327 43.352 41.9207 43.032 42.1607 42.696C42.4167 42.344 42.6567 41.984 42.8807 41.616L43.0487 41.304L43.4567 40.656L43.6007 40.32V40.272C43.6007 40.272 43.6087 40.264 43.6247 40.248C43.6247 40.184 43.6487 40.112 43.6967 40.032C43.7767 39.808 43.8567 39.592 43.9367 39.384C44.0327 39.176 44.1447 39.048 44.2727 39C44.2887 39.032 44.3047 39.048 44.3207 39.048L44.3927 39.096C44.4567 39.16 44.4887 39.24 44.4887 39.336C44.5047 39.416 44.4967 39.52 44.4647 39.648C44.4487 39.712 44.4327 39.768 44.4167 39.816C44.4167 39.864 44.4167 39.92 44.4167 39.984C44.4487 40.176 44.4007 40.408 44.2727 40.68L44.1047 40.992C43.7207 41.648 43.3367 42.248 42.9527 42.792C42.5847 43.32 42.1207 43.808 41.5607 44.256C41.4487 44.336 41.3527 44.432 41.2727 44.544C41.1927 44.64 41.1047 44.736 41.0087 44.832C40.9127 44.96 40.8087 45.08 40.6967 45.192C40.6007 45.288 40.5127 45.368 40.4327 45.432C40.2887 45.512 40.1127 45.6 39.9047 45.696C39.6967 45.792 39.4967 45.88 39.3047 45.96C39.1127 46.04 38.9447 46.104 38.8007 46.152C38.6567 46.216 38.5847 46.248 38.5847 46.248C38.4407 46.216 38.3367 46.176 38.2727 46.128C38.2247 46.08 38.1607 46.016 38.0807 45.936L37.9127 45.744L37.2407 44.952L37.1687 44.784L37.0967 44.688V44.64C37.0647 44.592 37.0407 44.552 37.0247 44.52C37.0087 44.472 36.9927 44.424 36.9767 44.376V44.28C36.9767 44.264 36.9687 44.248 36.9527 44.232C36.9527 44.216 36.9607 44.192 36.9767 44.16C36.9767 44.064 36.9847 44 37.0007 43.968L37.0487 43.704V43.68H37.0727C37.0887 43.6 37.1047 43.52 37.1207 43.44C37.1367 43.344 37.1447 43.256 37.1447 43.176V43.104C37.1287 43.072 37.0887 43.016 37.0247 42.936C36.9607 42.84 36.8887 42.744 36.8087 42.648C36.7287 42.552 36.6407 42.472 36.5447 42.408C36.4487 42.328 36.3527 42.272 36.2567 42.24C36.1287 42.24 36.0167 42.216 35.9207 42.168C35.8567 42.152 35.7927 42.136 35.7287 42.12C35.6807 42.104 35.6407 42.096 35.6087 42.096C35.5447 42.096 35.5047 42.144 35.4887 42.24C35.4727 42.336 35.4487 42.448 35.4167 42.576C35.4007 42.704 35.3767 42.824 35.3447 42.936C35.3287 43.048 35.2807 43.144 35.2007 43.224C35.1047 43.32 35.0327 43.416 34.9847 43.512L34.8647 43.68C34.8327 43.728 34.8007 43.792 34.7687 43.872C34.7527 43.936 34.7367 44 34.7207 44.064C34.6887 44.144 34.6567 44.232 34.6247 44.328C34.6087 44.408 34.5767 44.464 34.5287 44.496C34.4967 44.56 34.4487 44.624 34.3847 44.688C34.3367 44.736 34.2807 44.776 34.2167 44.808C34.1367 44.888 34.0567 44.968 33.9767 45.048C33.9127 45.112 33.9207 45.192 34.0007 45.288C33.9847 45.336 33.9207 45.464 33.8087 45.672C33.7127 45.864 33.6007 45.96 33.4727 45.96C33.3287 45.96 33.2167 45.96 33.1367 45.96C33.0727 45.976 33.0167 45.984 32.9687 45.984H32.6327C32.4247 45.984 32.3127 45.896 32.2967 45.72V45.624C32.2647 45.56 32.2647 45.488 32.2967 45.408V45.192C32.2967 45.144 32.3047 45.104 32.3207 45.072V45.024C32.3367 44.896 32.3527 44.776 32.3687 44.664C32.3847 44.552 32.4087 44.44 32.4407 44.328C32.4887 44.056 32.5447 43.792 32.6087 43.536C32.6727 43.264 32.7447 43.008 32.8247 42.768C32.8567 42.592 32.8967 42.432 32.9447 42.288C32.9927 42.128 33.0327 41.976 33.0647 41.832L33.0887 41.64L33.1127 41.544V41.52L33.1847 41.16C33.2167 41 33.2487 40.848 33.2807 40.704C33.3287 40.544 33.3767 40.384 33.4247 40.224L33.4967 39.96Z" fill="url(#paint11_linear_20_678)"/>
<path d="M48.5634 36.312C48.7234 36.36 48.9074 36.44 49.1154 36.552C49.3394 36.664 49.5474 36.8 49.7394 36.96C49.9474 37.104 50.1154 37.256 50.2434 37.416C50.3874 37.56 50.4674 37.688 50.4834 37.8C50.5154 38.056 50.4194 38.208 50.1954 38.256C50.1634 38.24 50.1074 38.232 50.0274 38.232C49.7554 38.232 49.3874 38.288 48.9234 38.4C48.4754 38.512 48.1154 38.712 47.8434 39L47.4114 39.408C47.1874 39.6 46.9634 39.808 46.7394 40.032C46.5314 40.256 46.3954 40.504 46.3314 40.776C46.2034 40.968 46.0994 41.152 46.0194 41.328C45.9554 41.504 45.8834 41.688 45.8034 41.88L45.5874 42.336C45.5074 42.512 45.4274 42.68 45.3474 42.84C45.2834 42.984 45.2114 43.168 45.1314 43.392L45.1074 43.536V43.512C45.0754 43.592 45.0434 43.688 45.0114 43.8C44.9954 43.896 44.9874 43.96 44.9874 43.992L45.0114 44.016L45.0594 44.256C45.0594 44.336 45.0754 44.44 45.1074 44.568C45.1394 44.632 45.1554 44.688 45.1554 44.736C45.1714 44.976 45.2594 45.096 45.4194 45.096H45.4914C45.5874 45.112 45.7074 45.096 45.8514 45.048C46.0114 44.984 46.2274 44.8 46.4994 44.496C46.6914 44.224 46.8834 43.904 47.0754 43.536C47.2834 43.152 47.4754 42.776 47.6514 42.408C47.7794 42.136 47.8994 41.88 48.0114 41.64C48.1394 41.384 48.2674 41.168 48.3954 40.992C48.4434 40.896 48.4834 40.784 48.5154 40.656C48.5634 40.528 48.6034 40.4 48.6354 40.272C48.6834 40.128 48.7314 40.024 48.7794 39.96C48.8274 39.88 48.8674 39.816 48.8994 39.768C48.9474 39.72 49.0114 39.592 49.0914 39.384C49.0914 39.288 49.1714 39.208 49.3314 39.144C49.4914 39.08 49.6834 39.048 49.9074 39.048C49.9714 39.048 50.0274 39.048 50.0754 39.048C50.1234 39.032 50.1714 39.024 50.2194 39.024C50.4274 39.008 50.6274 39.016 50.8194 39.048C51.0114 39.08 51.2034 39.184 51.3954 39.36C51.4114 39.392 51.4194 39.424 51.4194 39.456V39.48L51.4674 39.504H51.4434C51.5074 39.552 51.5634 39.6 51.6114 39.648C51.6594 39.696 51.6914 39.768 51.7074 39.864C51.7234 39.896 51.6994 39.992 51.6354 40.152C51.5874 40.296 51.5314 40.448 51.4674 40.608C51.4194 40.736 51.3794 40.848 51.3474 40.944C51.3154 41.04 51.2994 41.104 51.2994 41.136C51.2994 41.2 51.2834 41.28 51.2514 41.376C51.2194 41.456 51.1794 41.56 51.1314 41.688C51.0994 41.816 51.0834 42.016 51.0834 42.288C51.0674 42.48 51.0354 42.656 50.9874 42.816C50.9554 42.96 50.9074 43.104 50.8434 43.248C50.8114 43.344 50.7794 43.44 50.7474 43.536C50.7154 43.632 50.6834 43.736 50.6514 43.848L50.3634 44.712C50.2034 45.032 50.1314 45.232 50.1474 45.312C50.1474 45.344 50.1874 45.368 50.2674 45.384C50.3634 45.4 50.4434 45.408 50.5074 45.408C50.6514 45.408 50.8114 45.344 50.9874 45.216C51.1634 45.088 51.3394 44.936 51.5154 44.76C51.6914 44.568 51.8594 44.368 52.0194 44.16C52.1794 43.936 52.3154 43.728 52.4274 43.536L53.1474 42.264C53.2114 42.168 53.2914 42.056 53.3874 41.928C53.4834 41.784 53.5714 41.616 53.6514 41.424C53.6994 41.312 53.7714 41.192 53.8674 41.064C53.9634 40.92 54.0434 40.784 54.1074 40.656L54.6834 39.744C54.7634 39.664 54.8594 39.624 54.9714 39.624C55.1154 39.624 55.1954 39.704 55.2114 39.864C55.2114 39.96 55.2034 40.048 55.1874 40.128C55.1874 40.192 55.1154 40.328 54.9714 40.536C54.8754 40.664 54.7474 40.84 54.5874 41.064C54.4434 41.288 54.2674 41.584 54.0594 41.952C53.9794 42.064 53.8594 42.248 53.6994 42.504C53.5394 42.744 53.3714 43.008 53.1954 43.296C53.0034 43.616 52.8194 43.92 52.6434 44.208C52.4674 44.48 52.3314 44.68 52.2354 44.808C52.1874 44.92 52.0914 45.056 51.9474 45.216C51.8194 45.376 51.6674 45.528 51.4914 45.672C51.3314 45.816 51.1634 45.944 50.9874 46.056C50.8274 46.168 50.6914 46.224 50.5794 46.224L50.3874 46.296C50.2914 46.328 50.1954 46.36 50.0994 46.392C50.0194 46.424 49.9314 46.44 49.8354 46.44C49.6434 46.44 49.4514 46.384 49.2594 46.272C49.0834 46.176 48.9154 46.048 48.7554 45.888C48.6114 45.728 48.4834 45.56 48.3714 45.384C48.2594 45.192 48.1794 45.024 48.1314 44.88C48.0514 44.672 48.0114 44.448 48.0114 44.208C47.9954 44.144 47.9874 44.08 47.9874 44.016C47.9874 43.936 47.9874 43.864 47.9874 43.8C47.9874 43.736 47.9874 43.672 47.9874 43.608C47.9874 43.544 47.9794 43.472 47.9634 43.392L47.9394 43.2C47.9394 43.184 47.9394 43.176 47.9394 43.176C47.9554 43.16 47.9634 43.144 47.9634 43.128C47.9794 43.048 47.9874 43.016 47.9874 43.032C47.9874 43.048 47.9874 43.04 47.9874 43.008L47.6514 43.512V43.488L47.1954 44.4C47.1314 44.464 47.0834 44.528 47.0514 44.592C47.0194 44.64 46.9874 44.696 46.9554 44.76C46.8274 44.968 46.6834 45.16 46.5234 45.336C46.3794 45.512 46.2354 45.608 46.0914 45.624L45.9954 45.696C45.8354 45.824 45.6834 45.928 45.5394 46.008C45.4114 46.104 45.2914 46.152 45.1794 46.152C44.8914 46.152 44.5794 46.104 44.2434 46.008C43.9234 45.928 43.6194 45.792 43.3314 45.6C43.0594 45.408 42.8274 45.16 42.6354 44.856C42.4434 44.552 42.3234 44.184 42.2754 43.752C42.2594 43.48 42.2834 43.192 42.3474 42.888C42.3954 42.568 42.4754 42.24 42.5874 41.904C42.6994 41.568 42.8354 41.232 42.9954 40.896C43.1554 40.56 43.3314 40.24 43.5234 39.936L43.7394 39.456C43.9314 39.2 44.1154 38.96 44.2914 38.736C44.4834 38.512 44.6674 38.312 44.8434 38.136C45.1794 37.784 45.5154 37.488 45.8514 37.248L46.2114 37.08H46.1874C46.5074 36.856 46.8914 36.672 47.3394 36.528C47.8034 36.384 48.1714 36.312 48.4434 36.312H48.5634Z" fill="url(#paint12_linear_20_678)"/>
<defs>
<linearGradient id="paint0_linear_20_678" x1="73.376" y1="24.672" x2="73.376" y2="46.672" gradientUnits="userSpaceOnUse">
<stop stop-color="#293F52"/>
<stop offset="1" stop-color="#4F7B9E"/>
</linearGradient>
<linearGradient id="paint1_linear_20_678" x1="73.376" y1="24.672" x2="73.376" y2="46.672" gradientUnits="userSpaceOnUse">
<stop stop-color="#293F52"/>
<stop offset="1" stop-color="#4F7B9E"/>
</linearGradient>
<linearGradient id="paint2_linear_20_678" x1="73.376" y1="24.672" x2="73.376" y2="46.672" gradientUnits="userSpaceOnUse">
<stop stop-color="#293F52"/>
<stop offset="1" stop-color="#4F7B9E"/>
</linearGradient>
<linearGradient id="paint3_linear_20_678" x1="73.376" y1="24.672" x2="73.376" y2="46.672" gradientUnits="userSpaceOnUse">
<stop stop-color="#293F52"/>
<stop offset="1" stop-color="#4F7B9E"/>
</linearGradient>
<linearGradient id="paint4_linear_20_678" x1="73.376" y1="24.672" x2="73.376" y2="46.672" gradientUnits="userSpaceOnUse">
<stop stop-color="#293F52"/>
<stop offset="1" stop-color="#4F7B9E"/>
</linearGradient>
<linearGradient id="paint5_linear_20_678" x1="73.376" y1="24.672" x2="73.376" y2="46.672" gradientUnits="userSpaceOnUse">
<stop stop-color="#293F52"/>
<stop offset="1" stop-color="#4F7B9E"/>
</linearGradient>
<linearGradient id="paint6_linear_20_678" x1="73.376" y1="24.672" x2="73.376" y2="46.672" gradientUnits="userSpaceOnUse">
<stop stop-color="#293F52"/>
<stop offset="1" stop-color="#4F7B9E"/>
</linearGradient>
<linearGradient id="paint7_linear_20_678" x1="73.376" y1="24.672" x2="73.376" y2="46.672" gradientUnits="userSpaceOnUse">
<stop stop-color="#293F52"/>
<stop offset="1" stop-color="#4F7B9E"/>
</linearGradient>
<linearGradient id="paint8_linear_20_678" x1="73.376" y1="24.672" x2="73.376" y2="46.672" gradientUnits="userSpaceOnUse">
<stop stop-color="#293F52"/>
<stop offset="1" stop-color="#4F7B9E"/>
</linearGradient>
<linearGradient id="paint9_linear_20_678" x1="73.376" y1="24.672" x2="73.376" y2="46.672" gradientUnits="userSpaceOnUse">
<stop stop-color="#293F52"/>
<stop offset="1" stop-color="#4F7B9E"/>
</linearGradient>
<linearGradient id="paint10_linear_20_678" x1="73.376" y1="24.672" x2="73.376" y2="46.672" gradientUnits="userSpaceOnUse">
<stop stop-color="#293F52"/>
<stop offset="1" stop-color="#4F7B9E"/>
</linearGradient>
<linearGradient id="paint11_linear_20_678" x1="73.376" y1="24.672" x2="73.376" y2="46.672" gradientUnits="userSpaceOnUse">
<stop stop-color="#293F52"/>
<stop offset="1" stop-color="#4F7B9E"/>
</linearGradient>
<linearGradient id="paint12_linear_20_678" x1="73.376" y1="24.672" x2="73.376" y2="46.672" gradientUnits="userSpaceOnUse">
<stop stop-color="#293F52"/>
<stop offset="1" stop-color="#4F7B9E"/>
</linearGradient>
</defs>
</svg>
