<svg width="48" height="55" viewBox="0 0 48 55" fill="none" xmlns="http://www.w3.org/2000/svg">
<path d="M44.4491 1.3011C43.7379 1.90287 42.8828 2.83206 41.8181 4.15949C41.5956 4.43824 41.3949 4.68603 41.3775 4.70815C41.3557 4.7347 41.3033 4.717 41.2466 4.66391C41.1549 4.57984 41.1549 4.57984 41.0415 4.71258C39.5275 6.43823 38.1095 8.04441 38.0615 8.08423C38.0091 8.12405 38.0047 8.10193 38.0135 7.93821C38.0309 7.77007 38.0135 7.72583 37.9 7.61078C37.743 7.45149 37.6426 7.44707 37.2456 7.57096C36.5911 7.7745 36.085 8.05326 35.2603 8.65502C35.016 8.83644 34.7804 8.98245 34.7411 8.98245C34.6058 8.98245 33.8685 9.25236 33.6896 9.3674C33.4191 9.53997 33.1398 9.84528 32.7864 10.3541C32.6075 10.6108 32.036 11.3851 31.5211 12.0753C31.0062 12.7612 29.7889 14.3895 28.8159 15.6859C25.116 20.6239 25.0636 20.6992 25.0636 20.8186C25.0636 20.9779 25.1771 21.1815 25.2818 21.2169C25.3298 21.2301 25.4999 21.2434 25.6614 21.239C25.8272 21.2346 26.0584 21.2478 26.1762 21.2744C26.3333 21.3054 26.4118 21.3054 26.4598 21.2655C26.5689 21.1815 26.1937 21.6284 25.0724 22.9115C19.2039 29.646 12.4454 37.5397 8.63634 42.1193C7.69826 43.2476 7.05688 44.0131 6.56384 44.6016C6.02717 45.2343 5.90937 45.3936 5.93555 45.46C5.953 45.5043 5.17636 46.8007 3.81942 48.991C1.78618 52.2874 1.65093 52.4953 1.07063 53.1945C0.634311 53.7254 0.477237 53.9422 0.512142 53.9776C0.538321 54.0042 0.573227 54.0263 0.595042 54.0263C0.612495 54.0263 0.887374 53.7874 1.20588 53.4909C1.52439 53.1945 2.1396 52.6856 2.57155 52.3538C3.5489 51.6104 3.50527 51.6414 3.39183 51.7741C3.18239 52.013 3.33074 52.3272 3.6318 52.2785C3.87177 52.2431 4.35608 51.9909 4.90584 51.6104C5.60831 51.1281 8.44 48.96 8.57089 48.8051C8.58398 48.7918 8.71051 48.6856 8.8545 48.575C9.4697 48.0972 12.5326 44.8936 15.7003 41.4158C16.1541 40.9158 16.6253 40.3981 16.7474 40.2654C17.0572 39.9291 18.5931 38.2123 19.3043 37.4114C19.6271 37.0442 20.0591 36.5574 20.2642 36.3273C20.9797 35.522 23.3664 32.7743 25.5218 30.2655C26.0453 29.6548 31.4295 23.2832 32.5726 21.9204C33.022 21.3894 33.7419 20.5222 34.1826 20.0001C37.0841 16.5355 37.4463 16.1196 37.8564 15.7833C38.6418 15.1417 39.1784 14.5134 39.6671 13.6815C39.9813 13.1329 40.243 12.7789 40.8801 12.0355C42.6428 9.96917 43.2754 9.20811 43.4456 8.93378C43.607 8.66387 43.6943 8.28777 43.6943 7.83202C43.6943 7.32317 43.6987 7.31432 44.1044 7.14618C44.4099 7.01787 44.5931 6.87185 45.204 6.23469C45.7973 5.62407 46.1115 5.2524 46.5958 4.59753C47.259 3.69931 47.4117 3.27454 47.259 2.73914C47.1194 2.25242 46.6176 1.63296 46.2031 1.43385C45.9762 1.32323 45.5356 1.2834 45.5966 1.37632C45.6097 1.40287 45.5486 1.37632 45.4527 1.31438C45.361 1.25686 45.1821 1.15509 45.06 1.09314L44.8331 0.973672L44.4491 1.3011ZM43.607 7.38955C43.6332 7.43822 43.6419 7.47804 43.6332 7.47804C43.6201 7.47804 43.5896 7.43822 43.5634 7.38955C43.5372 7.34087 43.5285 7.30105 43.5372 7.30105C43.5503 7.30105 43.5809 7.34087 43.607 7.38955ZM43.6507 7.53999C43.6507 7.54884 43.6158 7.58423 43.5765 7.61521C43.5067 7.67273 43.5023 7.6683 43.559 7.59751C43.6158 7.52671 43.6507 7.50459 43.6507 7.53999ZM37.0361 8.53998C36.7438 9.03112 36.2071 9.74793 35.4959 10.5886C34.1913 12.1417 34.2655 12.0399 34.2873 12.2169C34.3048 12.3718 34.2742 12.4116 33.6852 13.0798C33.3449 13.4691 31.8003 15.2213 30.2558 16.9824C26.8831 20.8186 27.1361 20.5354 27.2147 20.3983C27.2539 20.3363 27.2932 20.1062 27.3063 19.8673C27.3456 19.3319 27.4197 19.0709 27.6946 18.5001C27.8822 18.1195 28.0349 17.9027 28.5978 17.2169C29.2915 16.3762 30.4478 14.978 30.6179 14.7789C30.6703 14.7169 30.8143 14.5488 30.9321 14.4028C31.0542 14.2567 31.172 14.1152 31.1939 14.0886C31.22 14.0621 31.7044 13.4913 32.2759 12.8187C32.8475 12.1417 33.4103 11.5178 33.5238 11.4249C33.6416 11.3276 33.8728 11.1992 34.0343 11.1285C34.7804 10.8231 34.9462 10.7214 35.2909 10.3497C35.4698 10.155 35.7315 9.82315 35.8712 9.61077C36.1897 9.12404 36.5649 8.6683 36.8747 8.38511C37.0099 8.26122 37.1408 8.14175 37.167 8.11078C37.2019 8.07538 37.2194 8.07981 37.2281 8.12848C37.2368 8.16388 37.1496 8.34971 37.0361 8.53998Z" fill="url(#paint0_linear_18_34)"/>
<defs>
<linearGradient id="paint0_linear_18_34" x1="23.9104" y1="54.0263" x2="23.9104" y2="0.973671" gradientUnits="userSpaceOnUse">
<stop stop-color="#253A4B"/>
<stop offset="1" stop-color="#507DA0"/>
</linearGradient>
</defs>
</svg>
